<svg xmlns="http://www.w3.org/2000/svg" xmlns:xlink="http://www.w3.org/1999/xlink" width="60" height="60" viewBox="0 0 60 60">
  <defs>
    <linearGradient id="linear-gradient" x1="0.083" y1="0.111" x2="0.894" y2="0.933" gradientUnits="objectBoundingBox">
      <stop offset="0" stop-color="#1c1e2c"/>
      <stop offset="1" stop-color="#1a1c29"/>
    </linearGradient>
  </defs>
  <g id="Group_3672" data-name="Group 3672" transform="translate(-610 -2198)">
    <rect id="Rectangle_843" data-name="Rectangle 843" width="60" height="60" rx="20" transform="translate(610 2198)" opacity="0.95" fill="url(#linear-gradient)"/>
    <g id="supermarket" transform="translate(561.733 2214)">
      <g id="Group_3654" data-name="Group 3654" transform="translate(70.085 12.727)">
        <g id="Group_3653" data-name="Group 3653" transform="translate(0)">
          <path id="Path_16951" data-name="Path 16951" d="M102.856,238.933h0a.454.454,0,0,0-.455.454h0v10a.455.455,0,0,0,.909,0v-10A.455.455,0,0,0,102.856,238.933Z" transform="translate(-102.401 -238.933)" fill="#fff" stroke="#fff" stroke-width="0.4"/>
        </g>
      </g>
      <g id="Group_3656" data-name="Group 3656" transform="translate(85.54 12.727)">
        <g id="Group_3655" data-name="Group 3655" transform="translate(0)">
          <path id="Path_16952" data-name="Path 16952" d="M392.989,238.933a.455.455,0,0,0-.455.455v10a.455.455,0,1,0,.909,0v-10A.455.455,0,0,0,392.989,238.933Z" transform="translate(-392.534 -238.933)" fill="#fff" stroke="#fff" stroke-width="0.4"/>
        </g>
      </g>
      <g id="Group_3658" data-name="Group 3658" transform="translate(68.267)">
        <g id="Group_3657" data-name="Group 3657" transform="translate(0)">
          <path id="Path_16953" data-name="Path 16953" d="M87.812,7.727a.454.454,0,0,0-.349.163l-.106.127V6.364a2.729,2.729,0,0,0-2.273-2.686v-.95a.91.91,0,0,0,.909-.909V.909A.91.91,0,0,0,85.085,0H82.358a.91.91,0,0,0-.909.909v.909a.91.91,0,0,0,.909.909v.95a2.73,2.73,0,0,0-2.251,2.357,3.6,3.6,0,0,0-.931-.125,3.644,3.644,0,0,0-1.818.493V4.091a2.275,2.275,0,0,0-2.273-2.273,2.25,2.25,0,0,0-1.364.466V2.273a2.273,2.273,0,0,0-4.546,0V8.017l-.106-.127a.455.455,0,0,0-.8.291V23.433a2.278,2.278,0,0,0,.526,1.455l1.034,1.24a3.173,3.173,0,0,0,2.445,1.145h11.99a3.174,3.174,0,0,0,2.445-1.145l1.034-1.24a2.277,2.277,0,0,0,.526-1.455V8.182A.455.455,0,0,0,87.812,7.727ZM82.358.909h2.727v.908H82.358Zm1.818,1.818v.909h-.909V2.727ZM80.994,6.364a1.82,1.82,0,0,1,1.818-1.818h1.818a1.82,1.82,0,0,1,1.818,1.818V9.106l-.515.616a1.247,1.247,0,0,0-1.919.269.352.352,0,0,1-.587,0,1.241,1.241,0,0,0-.62-.511,3.586,3.586,0,0,0-1.814-3.073V6.364ZM77.23,7.639a2.767,2.767,0,0,1,3.116-.555,2.7,2.7,0,0,1,1.553,2.4,1.241,1.241,0,0,0-.611.508.352.352,0,0,1-.587,0,1.249,1.249,0,0,0-2.14,0,.352.352,0,0,1-.587,0,1.216,1.216,0,0,0-1.522-.511A2.7,2.7,0,0,1,77.23,7.639ZM73.722,4.091a1.364,1.364,0,1,1,2.727,0V7.15a3.552,3.552,0,0,0-.856,2.986.337.337,0,0,1-.347-.145,1.216,1.216,0,0,0-1.525-.51ZM70.085,2.273a1.364,1.364,0,0,1,2.727,0v7.876a.339.339,0,0,1-.293-.157A1.244,1.244,0,0,0,70.6,9.723l-.515-.617Zm17.273,21.16a1.367,1.367,0,0,1-.316.873l-1.034,1.24a2.266,2.266,0,0,1-1.746.818H72.272a2.266,2.266,0,0,1-1.746-.818l-1.034-1.24a1.367,1.367,0,0,1-.316-.873v-14l1.1,1.319a1.292,1.292,0,0,1,.116.1s.009,0,.013,0a.439.439,0,0,0,.095.033.456.456,0,0,0,.073.021.446.446,0,0,0,.094-.005.24.24,0,0,0,.154-.044.443.443,0,0,0,.083-.045s.009,0,.012-.007a1.25,1.25,0,0,1,.1-.116l.138-.233a.352.352,0,0,1,.587,0,1.235,1.235,0,0,0,1.692.433l.05-.031a.45.45,0,0,0,.115-.086,1.256,1.256,0,0,0,.284-.315.352.352,0,0,1,.587,0,1.249,1.249,0,0,0,2.14,0,.352.352,0,0,1,.587,0,1.249,1.249,0,0,0,2.14,0,.352.352,0,0,1,.587,0,1.249,1.249,0,0,0,2.14,0,.352.352,0,0,1,.587,0,1.249,1.249,0,0,0,2.141,0,.342.342,0,0,1,.584,0l.141.236a1.244,1.244,0,0,1,.1.116s.009,0,.012.007a.441.441,0,0,0,.083.045.241.241,0,0,0,.154.044.251.251,0,0,0,.167-.016.439.439,0,0,0,.095-.033s.009,0,.013,0a1.291,1.291,0,0,1,.116-.1l1.1-1.319Z" transform="translate(-68.267)" fill="#fff" stroke="#fff" stroke-width="0.4"/>
        </g>
      </g>
      <g id="Group_3660" data-name="Group 3660" transform="translate(70.54 3.185)">
        <g id="Group_3659" data-name="Group 3659" transform="translate(0)">
          <path id="Path_16954" data-name="Path 16954" d="M112.16,59.92a.455.455,0,0,0-.637,0l-.455.455a.454.454,0,1,0,.643.643l.455-.455A.454.454,0,0,0,112.16,59.92Z" transform="translate(-110.936 -59.79)" fill="#fff" stroke="#fff" stroke-width="0.4"/>
        </g>
      </g>
      <g id="Group_3662" data-name="Group 3662" transform="translate(70.54 5.003)">
        <g id="Group_3661" data-name="Group 3661" transform="translate(0)">
          <path id="Path_16955" data-name="Path 16955" d="M112.16,94.053a.455.455,0,0,0-.637,0l-.455.455a.454.454,0,1,0,.643.643l.455-.455A.454.454,0,0,0,112.16,94.053Z" transform="translate(-110.936 -93.923)" fill="#fff" stroke="#fff" stroke-width="0.4"/>
        </g>
      </g>
      <g id="Group_3664" data-name="Group 3664" transform="translate(70.54 6.821)">
        <g id="Group_3663" data-name="Group 3663" transform="translate(0)">
          <path id="Path_16956" data-name="Path 16956" d="M112.16,128.185a.454.454,0,0,0-.637,0l-.455.455a.454.454,0,1,0,.643.643l.455-.455A.454.454,0,0,0,112.16,128.185Z" transform="translate(-110.936 -128.055)" fill="#fff" stroke="#fff" stroke-width="0.4"/>
        </g>
      </g>
      <g id="Group_3666" data-name="Group 3666" transform="translate(74.176 5.003)">
        <g id="Group_3665" data-name="Group 3665">
          <path id="Path_16957" data-name="Path 16957" d="M180.426,94.052a.454.454,0,0,0-.637,0l-.455.455a.454.454,0,1,0,.643.643l.455-.455A.454.454,0,0,0,180.426,94.052Z" transform="translate(-179.202 -93.922)" fill="#fff" stroke="#fff" stroke-width="0.4"/>
        </g>
      </g>
      <g id="Group_3668" data-name="Group 3668" transform="translate(74.176 6.821)">
        <g id="Group_3667" data-name="Group 3667">
          <path id="Path_16958" data-name="Path 16958" d="M180.426,128.185a.455.455,0,0,0-.637,0l-.455.455a.454.454,0,1,0,.643.643l.455-.455A.454.454,0,0,0,180.426,128.185Z" transform="translate(-179.202 -128.055)" fill="#fff" stroke="#fff" stroke-width="0.4"/>
        </g>
      </g>
    </g>
  </g>
</svg>
