<svg xmlns="http://www.w3.org/2000/svg" xmlns:xlink="http://www.w3.org/1999/xlink" width="60" height="60" viewBox="0 0 60 60">
  <defs>
    <linearGradient id="linear-gradient" x1="0.083" y1="0.111" x2="0.894" y2="0.933" gradientUnits="objectBoundingBox">
      <stop offset="0" stop-color="#1c1e2c"/>
      <stop offset="1" stop-color="#1a1c29"/>
    </linearGradient>
  </defs>
  <g id="Group_3565" data-name="Group 3565" transform="translate(-190 -2258)">
    <rect id="Rectangle_842" data-name="Rectangle 842" width="60" height="60" rx="20" transform="translate(190 2258)" opacity="0.95" fill="url(#linear-gradient)"/>
    <g id="_002-shopping-cart" data-name="002-shopping-cart" transform="translate(208 2237.717)">
      <path id="Path_16935" data-name="Path 16935" d="M23.644,46.994a1.665,1.665,0,0,0-1.3-.619H17.717L15.211,40.7a.706.706,0,0,0-.926-.359.692.692,0,0,0-.363.916l2.261,5.119H7.817l2.261-5.119a.692.692,0,0,0-.363-.916.706.706,0,0,0-.926.359L6.283,46.376H1.661a1.665,1.665,0,0,0-1.3.619,1.588,1.588,0,0,0-.315,1.362L2.51,59.018a1.644,1.644,0,0,0,1.619,1.264H19.871a1.644,1.644,0,0,0,1.619-1.264l2.468-10.662a1.588,1.588,0,0,0-.315-1.362Zm-3.773,11.9H4.129a.251.251,0,0,1-.249-.184L1.412,48.046a.211.211,0,0,1,.044-.185.256.256,0,0,1,.2-.095H5.669l-.184.417a.692.692,0,0,0,.363.916.707.707,0,0,0,.926-.359l.43-.974H16.8l.43.974a.707.707,0,0,0,.926.359.692.692,0,0,0,.363-.916l-.184-.417h4.008a.256.256,0,0,1,.2.095.211.211,0,0,1,.044.185L20.12,58.708a.251.251,0,0,1-.249.184Z" transform="translate(0)" fill="#fff"/>
      <path id="Path_16936" data-name="Path 16936" d="M151.7,266.717a.7.7,0,0,0-.7.7v5.1a.7.7,0,0,0,1.406,0v-5.1A.7.7,0,0,0,151.7,266.717Z" transform="translate(-143.922 -215.938)" fill="#fff"/>
      <path id="Path_16937" data-name="Path 16937" d="M241.7,266.717a.7.7,0,0,0-.7.7v5.1a.7.7,0,0,0,1.406,0v-5.1A.7.7,0,0,0,241.7,266.717Z" transform="translate(-229.703 -215.938)" fill="#fff"/>
      <path id="Path_16938" data-name="Path 16938" d="M331.7,266.717a.7.7,0,0,0-.7.7v5.1a.7.7,0,0,0,1.406,0v-5.1A.7.7,0,0,0,331.7,266.717Z" transform="translate(-315.484 -215.938)" fill="#fff"/>
    </g>
  </g>
</svg>
