<svg xmlns="http://www.w3.org/2000/svg" xmlns:xlink="http://www.w3.org/1999/xlink" width="309" height="237" viewBox="0 0 309 237">
  <defs>
    <clipPath id="clip-path">
      <path id="Path_17319" data-name="Path 17319" d="M556.663,579.128c3.851-23.293,14.2-68.524,35.359-57.556,13.483,6.988,20.568,36.223,24.291,64.843,0,0-24.545-.187-32.644-1.238C576.808,584.286,556.663,579.128,556.663,579.128Z" transform="translate(-556.663 -519.885)" fill="#fff"/>
    </clipPath>
  </defs>
  <g id="no_result_found" data-name="no result found" transform="translate(-467 -200)">
    <ellipse id="Ellipse_107" data-name="Ellipse 107" cx="154.5" cy="53.5" rx="154.5" ry="53.5" transform="translate(467 330)" fill="#f9f9f9"/>
    <g id="Group_3998" data-name="Group 3998" transform="translate(77.494 -213.896)">
      <g id="Group_3827" data-name="Group 3827" transform="translate(477.507 554.729)">
        <path id="Path_17182" data-name="Path 17182" d="M648.1,840.865l-53.2-20.258,2.244-1.066c7.121-3.9,11.3-8.627,11.3-13.724,0-13.28-28.372-24.084-63.245-24.084s-63.245,10.8-63.245,24.084S510.328,829.9,545.2,829.9c15.65,0,29.986-2.178,41.04-5.777l52.908,20.148a14.533,14.533,0,0,0,8.948,0C650.569,843.331,650.569,841.806,648.1,840.865ZM545.2,824.7c-27.339,0-49.581-8.47-49.581-18.881s22.242-18.881,49.581-18.881,49.582,8.47,49.582,18.881S572.54,824.7,545.2,824.7Z" transform="translate(-480.208 -778.083)" fill="#e8e8e8"/>
        <g id="Group_3823" data-name="Group 3823" transform="translate(0.01)">
          <path id="Path_17183" data-name="Path 17183" d="M645.1,832.865l-53.2-20.258,2.244-1.066c7.121-3.9,11.3-8.627,11.3-13.724,0-13.28-28.372-24.084-63.245-24.084s-63.245,10.8-63.245,24.084S507.328,821.9,542.2,821.9c15.65,0,29.986-2.178,41.04-5.777l52.908,20.148a14.533,14.533,0,0,0,8.948,0C647.569,835.331,647.569,833.806,645.1,832.865ZM492.619,797.817c0-10.411,22.242-18.881,49.581-18.881s49.581,8.47,49.581,18.881S569.54,816.7,542.2,816.7,492.619,808.228,492.619,797.817Z" transform="translate(-478.397 -773.226)" fill="#fff"/>
          <g id="Group_3822" data-name="Group 3822">
            <path id="Path_17184" data-name="Path 17184" d="M644.56,831.69l-46.6-17.745-6.6-2.514-.072.736c5.266-2.5,11.327-6.119,13.317-11.967,1.4-4.108-.137-8.154-2.935-11.25-3.527-3.9-8.408-6.479-13.2-8.487a97.3,97.3,0,0,0-21.557-5.911,154.637,154.637,0,0,0-52.946.351,92.5,92.5,0,0,0-20.823,6.091c-4.623,2.046-9.387,4.7-12.647,8.663-2.378,2.892-3.673,6.578-2.569,10.276,1.219,4.084,4.7,7.159,8.141,9.43a62.255,62.255,0,0,0,17.72,7.523,129.5,129.5,0,0,0,24.533,4.157c17.457,1.374,35.706.338,52.531-4.79,1.277-.389,1.079-.566,2.226-.129l3.163,1.2,11.063,4.213L624.766,832c5.93,2.258,13.629,6.609,20.005,3.712,2.529-1.149,2.179-2.979-.211-4.02-.49-.214-1.319.491-.653.781,1.086.473,1.659.586,1.046,1.69-.471.848-.73.927-1.674,1.193a12.844,12.844,0,0,1-3.471.413,13.037,13.037,0,0,1-4.264-.7c-.512-.176-1.015-.386-1.521-.579L626,831.44,600.7,821.8c-5.812-2.214-11.59-4.677-17.486-6.659-.964-.324-1.5-.016-2.569.31a106.9,106.9,0,0,1-10.658,2.626,147.331,147.331,0,0,1-25.588,2.585c-15.8.284-32.311-1.3-47.192-6.908-7.15-2.694-19.871-8.492-18.432-18.147.614-4.121,3.883-7.309,7.12-9.62,4.981-3.555,10.877-5.816,16.7-7.549,15.717-4.673,32.628-5.774,48.93-4.744,14.03.886,29.211,3.181,41.658,10.133,3.887,2.171,8.018,5.085,9.917,9.268,2.494,5.494-.861,10.724-5.188,14.129a36.949,36.949,0,0,1-7.133,4.25c-.315.15-.478.581-.072.736l46.6,17.745,6.6,2.514C644.4,832.66,645.237,831.948,644.56,831.69Z" transform="translate(-477.533 -772.442)" fill="#262626"/>
            <path id="Path_17185" data-name="Path 17185" d="M513.426,805.13c.1-5.359,5.472-8.862,9.745-11.007,7.162-3.6,15.265-5.36,23.161-6.392a124.472,124.472,0,0,1,29.293-.319c8.262.884,16.668,2.528,24.286,5.948,4.406,1.978,10.167,5.156,11.342,10.308,1.149,5.037-3.377,8.959-7.227,11.272-6.683,4.017-14.642,5.966-22.268,7.2a122.787,122.787,0,0,1-29.114,1.106c-9.241-.725-18.71-2.336-27.253-6.067-4.86-2.122-11.85-5.913-11.967-12.049-.011-.606-1.164-.442-1.154.082.1,5.2,4.85,8.782,9.005,11.056,7.208,3.945,15.53,5.86,23.6,7.013a124.981,124.981,0,0,0,31.562.424c8.483-.957,17.16-2.706,24.917-6.387,4.4-2.089,9.882-5.376,11.04-10.533,1.105-4.922-2.853-8.924-6.615-11.4-6.5-4.268-14.427-6.348-21.994-7.714a122.845,122.845,0,0,0-31.293-1.428c-9.828.768-20.025,2.518-29,6.776-4.8,2.28-11.114,6.166-11.229,12.188C512.26,805.816,513.416,805.657,513.426,805.13Z" transform="translate(-498.627 -780.58)" fill="#262626"/>
          </g>
        </g>
        <g id="Group_3824" data-name="Group 3824" transform="translate(110.324 50.053)">
          <path id="Path_17186" data-name="Path 17186" d="M758.494,900.428l45.834,17.454a15.645,15.645,0,0,0,4.363,1.085c1.442.117,9.985-.158,8.289-3.433-.193-.372-1.3,0-1.138.3,1.418,2.738-6.453,2.63-7.9,2.348a13.477,13.477,0,0,1-1.9-.535c-.828-.292-1.643-.626-2.462-.938l-10.774-4.1-26.881-10.236-6.517-2.482c-.328-.125-1.363.363-.91.535Z" transform="translate(-758.381 -899.872)" fill="#262626"/>
        </g>
        <g id="Group_3825" data-name="Group 3825" transform="translate(38.87 10.547)">
          <path id="Path_17187" data-name="Path 17187" d="M576.879,802.305a119.807,119.807,0,0,1,39.519-1.518c9.81,1.219,20.8,3.434,28.887,9.505.274.206,1.289-.242,1.067-.409-8.193-6.151-19.288-8.381-29.231-9.617a121.483,121.483,0,0,0-40.05,1.542c-.475.1-.982.665-.191.5Z" transform="translate(-576.466 -799.294)" fill="#262626"/>
        </g>
        <g id="Group_3826" data-name="Group 3826" transform="translate(0 28.534)">
          <path id="Path_17188" data-name="Path 17188" d="M477.507,845.51c.065,4.373,3.032,7.9,6.315,10.485,4.94,3.882,11,6.323,16.949,8.183,17.017,5.318,35.548,6.409,53.24,5.055a126.543,126.543,0,0,0,28.946-5.348c.652-.209.555-.653-.117-.438-17.342,5.555-36.253,6.668-54.315,5.188a127.358,127.358,0,0,1-24.7-4.3c-6.111-1.752-12.284-4.05-17.533-7.708-3.826-2.667-7.574-6.462-7.648-11.418,0-.254-1.144-.066-1.138.305Z" transform="translate(-477.507 -845.088)" fill="#262626"/>
        </g>
      </g>
      <g id="Group_3988" data-name="Group 3988" transform="translate(504.425 413.897)">
        <path id="Path_17189" data-name="Path 17189" d="M610.741,678a553.239,553.239,0,0,1,4.121,61.793s-18.01-40.405-35.212-42.527-32.164,33.37-32.164,33.37.925-35.149,1.76-46.837a131.332,131.332,0,0,1,1.845-13.086s20.142,5.211,27.006,6.1C586.2,677.867,610.741,678,610.741,678Z" transform="translate(-546.917 -569.838)" fill="#dbdbdb"/>
        <g id="Group_3966" data-name="Group 3966" transform="translate(4.174 41.631)">
          <path id="Path_17190" data-name="Path 17190" d="M556.663,579.128c3.851-23.293,14.2-68.524,35.359-57.556,13.483,6.988,20.568,36.223,24.291,64.843,0,0-24.545-.187-32.644-1.238C576.808,584.286,556.663,579.128,556.663,579.128Z" transform="translate(-556.663 -519.885)" fill="#fff"/>
          <g id="Group_3965" data-name="Group 3965" clip-path="url(#clip-path)">
            <g id="Group_3964" data-name="Group 3964" transform="translate(-0.581 9.941)">
              <g id="Group_3844" data-name="Group 3844" transform="translate(1.964)">
                <g id="Group_3828" data-name="Group 3828">
                  <path id="Path_17191" data-name="Path 17191" d="M560.971,550.694a.786.786,0,0,1-.786-.786v-3.928a.786.786,0,0,1,1.571,0v3.928A.785.785,0,0,1,560.971,550.694Z" transform="translate(-560.185 -545.195)" fill="#e8e8e8"/>
                </g>
                <g id="Group_3829" data-name="Group 3829" transform="translate(3.928)">
                  <path id="Path_17192" data-name="Path 17192" d="M570.971,550.694a.786.786,0,0,1-.786-.786v-3.928a.786.786,0,0,1,1.571,0v3.928A.785.785,0,0,1,570.971,550.694Z" transform="translate(-570.185 -545.195)" fill="#e8e8e8"/>
                </g>
                <g id="Group_3830" data-name="Group 3830" transform="translate(7.856)">
                  <path id="Path_17193" data-name="Path 17193" d="M580.971,550.694a.786.786,0,0,1-.786-.786v-3.928a.786.786,0,1,1,1.571,0v3.928A.785.785,0,0,1,580.971,550.694Z" transform="translate(-580.185 -545.195)" fill="#e8e8e8"/>
                </g>
                <g id="Group_3831" data-name="Group 3831" transform="translate(11.784)">
                  <path id="Path_17194" data-name="Path 17194" d="M590.971,550.694a.786.786,0,0,1-.786-.786v-3.928a.786.786,0,0,1,1.571,0v3.928A.785.785,0,0,1,590.971,550.694Z" transform="translate(-590.185 -545.195)" fill="#e8e8e8"/>
                </g>
                <g id="Group_3832" data-name="Group 3832" transform="translate(15.711)">
                  <path id="Path_17195" data-name="Path 17195" d="M600.971,550.694a.786.786,0,0,1-.786-.786v-3.928a.786.786,0,0,1,1.571,0v3.928A.785.785,0,0,1,600.971,550.694Z" transform="translate(-600.185 -545.195)" fill="#e8e8e8"/>
                </g>
                <g id="Group_3833" data-name="Group 3833" transform="translate(19.639)">
                  <path id="Path_17196" data-name="Path 17196" d="M610.971,550.694a.786.786,0,0,1-.786-.786v-3.928a.786.786,0,1,1,1.571,0v3.928A.785.785,0,0,1,610.971,550.694Z" transform="translate(-610.185 -545.195)" fill="#e8e8e8"/>
                </g>
                <g id="Group_3834" data-name="Group 3834" transform="translate(23.567)">
                  <path id="Path_17197" data-name="Path 17197" d="M620.971,550.694a.786.786,0,0,1-.786-.786v-3.928a.786.786,0,0,1,1.571,0v3.928A.785.785,0,0,1,620.971,550.694Z" transform="translate(-620.185 -545.195)" fill="#e8e8e8"/>
                </g>
                <g id="Group_3835" data-name="Group 3835" transform="translate(27.495)">
                  <path id="Path_17198" data-name="Path 17198" d="M630.971,550.694a.786.786,0,0,1-.786-.786v-3.928a.786.786,0,0,1,1.571,0v3.928A.785.785,0,0,1,630.971,550.694Z" transform="translate(-630.185 -545.195)" fill="#e8e8e8"/>
                </g>
                <g id="Group_3836" data-name="Group 3836" transform="translate(31.423)">
                  <path id="Path_17199" data-name="Path 17199" d="M640.971,550.694a.786.786,0,0,1-.786-.786v-3.928a.786.786,0,1,1,1.571,0v3.928A.785.785,0,0,1,640.971,550.694Z" transform="translate(-640.185 -545.195)" fill="#e8e8e8"/>
                </g>
                <g id="Group_3837" data-name="Group 3837" transform="translate(35.351)">
                  <path id="Path_17200" data-name="Path 17200" d="M650.971,550.694a.786.786,0,0,1-.786-.786v-3.928a.786.786,0,1,1,1.571,0v3.928A.785.785,0,0,1,650.971,550.694Z" transform="translate(-650.185 -545.195)" fill="#e8e8e8"/>
                </g>
                <g id="Group_3838" data-name="Group 3838" transform="translate(39.279)">
                  <path id="Path_17201" data-name="Path 17201" d="M660.971,550.694a.786.786,0,0,1-.786-.786v-3.928a.786.786,0,1,1,1.571,0v3.928A.785.785,0,0,1,660.971,550.694Z" transform="translate(-660.185 -545.195)" fill="#e8e8e8"/>
                </g>
                <g id="Group_3839" data-name="Group 3839" transform="translate(43.207)">
                  <path id="Path_17202" data-name="Path 17202" d="M670.971,550.694a.786.786,0,0,1-.786-.786v-3.928a.786.786,0,1,1,1.571,0v3.928A.785.785,0,0,1,670.971,550.694Z" transform="translate(-670.185 -545.195)" fill="#e8e8e8"/>
                </g>
                <g id="Group_3840" data-name="Group 3840" transform="translate(47.134)">
                  <path id="Path_17203" data-name="Path 17203" d="M680.971,550.694a.786.786,0,0,1-.786-.786v-3.928a.786.786,0,0,1,1.571,0v3.928A.785.785,0,0,1,680.971,550.694Z" transform="translate(-680.185 -545.195)" fill="#e8e8e8"/>
                </g>
                <g id="Group_3841" data-name="Group 3841" transform="translate(51.062)">
                  <path id="Path_17204" data-name="Path 17204" d="M690.971,550.694a.786.786,0,0,1-.786-.786v-3.928a.786.786,0,1,1,1.571,0v3.928A.785.785,0,0,1,690.971,550.694Z" transform="translate(-690.185 -545.195)" fill="#e8e8e8"/>
                </g>
                <g id="Group_3842" data-name="Group 3842" transform="translate(54.99)">
                  <path id="Path_17205" data-name="Path 17205" d="M700.971,550.694a.786.786,0,0,1-.786-.786v-3.928a.786.786,0,1,1,1.571,0v3.928A.785.785,0,0,1,700.971,550.694Z" transform="translate(-700.185 -545.195)" fill="#e8e8e8"/>
                </g>
                <g id="Group_3843" data-name="Group 3843" transform="translate(58.918)">
                  <path id="Path_17206" data-name="Path 17206" d="M710.971,550.694a.786.786,0,0,1-.786-.786v-3.928a.786.786,0,0,1,1.571,0v3.928A.785.785,0,0,1,710.971,550.694Z" transform="translate(-710.185 -545.195)" fill="#e8e8e8"/>
                </g>
              </g>
              <g id="Group_3861" data-name="Group 3861" transform="translate(0 7.856)">
                <g id="Group_3845" data-name="Group 3845">
                  <path id="Path_17207" data-name="Path 17207" d="M555.971,570.694a.786.786,0,0,1-.786-.786v-3.928a.786.786,0,0,1,1.571,0v3.928A.785.785,0,0,1,555.971,570.694Z" transform="translate(-555.185 -565.195)" fill="#e8e8e8"/>
                </g>
                <g id="Group_3846" data-name="Group 3846" transform="translate(3.928)">
                  <path id="Path_17208" data-name="Path 17208" d="M565.971,570.694a.786.786,0,0,1-.786-.786v-3.928a.786.786,0,0,1,1.571,0v3.928A.785.785,0,0,1,565.971,570.694Z" transform="translate(-565.185 -565.195)" fill="#e8e8e8"/>
                </g>
                <g id="Group_3847" data-name="Group 3847" transform="translate(7.856)">
                  <path id="Path_17209" data-name="Path 17209" d="M575.971,570.694a.786.786,0,0,1-.786-.786v-3.928a.786.786,0,0,1,1.571,0v3.928A.785.785,0,0,1,575.971,570.694Z" transform="translate(-575.185 -565.195)" fill="#e8e8e8"/>
                </g>
                <g id="Group_3848" data-name="Group 3848" transform="translate(11.784)">
                  <path id="Path_17210" data-name="Path 17210" d="M585.971,570.694a.786.786,0,0,1-.786-.786v-3.928a.786.786,0,0,1,1.571,0v3.928A.785.785,0,0,1,585.971,570.694Z" transform="translate(-585.185 -565.195)" fill="#e8e8e8"/>
                </g>
                <g id="Group_3849" data-name="Group 3849" transform="translate(15.711)">
                  <path id="Path_17211" data-name="Path 17211" d="M595.971,570.694a.786.786,0,0,1-.786-.786v-3.928a.786.786,0,0,1,1.571,0v3.928A.785.785,0,0,1,595.971,570.694Z" transform="translate(-595.185 -565.195)" fill="#e8e8e8"/>
                </g>
                <g id="Group_3850" data-name="Group 3850" transform="translate(19.639)">
                  <path id="Path_17212" data-name="Path 17212" d="M605.971,570.694a.786.786,0,0,1-.786-.786v-3.928a.786.786,0,0,1,1.571,0v3.928A.785.785,0,0,1,605.971,570.694Z" transform="translate(-605.185 -565.195)" fill="#e8e8e8"/>
                </g>
                <g id="Group_3851" data-name="Group 3851" transform="translate(23.567)">
                  <path id="Path_17213" data-name="Path 17213" d="M615.971,570.694a.786.786,0,0,1-.786-.786v-3.928a.786.786,0,0,1,1.571,0v3.928A.785.785,0,0,1,615.971,570.694Z" transform="translate(-615.185 -565.195)" fill="#e8e8e8"/>
                </g>
                <g id="Group_3852" data-name="Group 3852" transform="translate(27.495)">
                  <path id="Path_17214" data-name="Path 17214" d="M625.971,570.694a.786.786,0,0,1-.786-.786v-3.928a.786.786,0,0,1,1.571,0v3.928A.785.785,0,0,1,625.971,570.694Z" transform="translate(-625.185 -565.195)" fill="#e8e8e8"/>
                </g>
                <g id="Group_3853" data-name="Group 3853" transform="translate(31.423)">
                  <path id="Path_17215" data-name="Path 17215" d="M635.971,570.694a.786.786,0,0,1-.786-.786v-3.928a.786.786,0,0,1,1.571,0v3.928A.785.785,0,0,1,635.971,570.694Z" transform="translate(-635.185 -565.195)" fill="#e8e8e8"/>
                </g>
                <g id="Group_3854" data-name="Group 3854" transform="translate(35.351)">
                  <path id="Path_17216" data-name="Path 17216" d="M645.971,570.694a.786.786,0,0,1-.786-.786v-3.928a.786.786,0,0,1,1.571,0v3.928A.785.785,0,0,1,645.971,570.694Z" transform="translate(-645.185 -565.195)" fill="#e8e8e8"/>
                </g>
                <g id="Group_3855" data-name="Group 3855" transform="translate(39.279)">
                  <path id="Path_17217" data-name="Path 17217" d="M655.971,570.694a.786.786,0,0,1-.786-.786v-3.928a.786.786,0,0,1,1.571,0v3.928A.785.785,0,0,1,655.971,570.694Z" transform="translate(-655.185 -565.195)" fill="#e8e8e8"/>
                </g>
                <g id="Group_3856" data-name="Group 3856" transform="translate(43.207)">
                  <path id="Path_17218" data-name="Path 17218" d="M665.971,570.694a.786.786,0,0,1-.786-.786v-3.928a.786.786,0,1,1,1.571,0v3.928A.785.785,0,0,1,665.971,570.694Z" transform="translate(-665.185 -565.195)" fill="#e8e8e8"/>
                </g>
                <g id="Group_3857" data-name="Group 3857" transform="translate(47.134)">
                  <path id="Path_17219" data-name="Path 17219" d="M675.971,570.694a.786.786,0,0,1-.786-.786v-3.928a.786.786,0,1,1,1.571,0v3.928A.785.785,0,0,1,675.971,570.694Z" transform="translate(-675.185 -565.195)" fill="#e8e8e8"/>
                </g>
                <g id="Group_3858" data-name="Group 3858" transform="translate(51.062)">
                  <path id="Path_17220" data-name="Path 17220" d="M685.971,570.694a.786.786,0,0,1-.786-.786v-3.928a.786.786,0,0,1,1.571,0v3.928A.785.785,0,0,1,685.971,570.694Z" transform="translate(-685.185 -565.195)" fill="#e8e8e8"/>
                </g>
                <g id="Group_3859" data-name="Group 3859" transform="translate(54.99)">
                  <path id="Path_17221" data-name="Path 17221" d="M695.971,570.694a.786.786,0,0,1-.786-.786v-3.928a.786.786,0,1,1,1.571,0v3.928A.785.785,0,0,1,695.971,570.694Z" transform="translate(-695.185 -565.195)" fill="#e8e8e8"/>
                </g>
                <g id="Group_3860" data-name="Group 3860" transform="translate(58.918)">
                  <path id="Path_17222" data-name="Path 17222" d="M705.971,570.694a.786.786,0,0,1-.786-.786v-3.928a.786.786,0,1,1,1.571,0v3.928A.785.785,0,0,1,705.971,570.694Z" transform="translate(-705.185 -565.195)" fill="#e8e8e8"/>
                </g>
              </g>
              <g id="Group_3878" data-name="Group 3878" transform="translate(1.964 15.711)">
                <g id="Group_3862" data-name="Group 3862">
                  <path id="Path_17223" data-name="Path 17223" d="M560.971,590.694a.786.786,0,0,1-.786-.786v-3.928a.786.786,0,0,1,1.571,0v3.928A.785.785,0,0,1,560.971,590.694Z" transform="translate(-560.185 -585.195)" fill="#e8e8e8"/>
                </g>
                <g id="Group_3863" data-name="Group 3863" transform="translate(3.928)">
                  <path id="Path_17224" data-name="Path 17224" d="M570.971,590.694a.786.786,0,0,1-.786-.786v-3.928a.786.786,0,0,1,1.571,0v3.928A.785.785,0,0,1,570.971,590.694Z" transform="translate(-570.185 -585.195)" fill="#e8e8e8"/>
                </g>
                <g id="Group_3864" data-name="Group 3864" transform="translate(7.856)">
                  <path id="Path_17225" data-name="Path 17225" d="M580.971,590.694a.786.786,0,0,1-.786-.786v-3.928a.786.786,0,1,1,1.571,0v3.928A.785.785,0,0,1,580.971,590.694Z" transform="translate(-580.185 -585.195)" fill="#e8e8e8"/>
                </g>
                <g id="Group_3865" data-name="Group 3865" transform="translate(11.784)">
                  <path id="Path_17226" data-name="Path 17226" d="M590.971,590.694a.786.786,0,0,1-.786-.786v-3.928a.786.786,0,0,1,1.571,0v3.928A.785.785,0,0,1,590.971,590.694Z" transform="translate(-590.185 -585.195)" fill="#e8e8e8"/>
                </g>
                <g id="Group_3866" data-name="Group 3866" transform="translate(15.711)">
                  <path id="Path_17227" data-name="Path 17227" d="M600.971,590.694a.786.786,0,0,1-.786-.786v-3.928a.786.786,0,0,1,1.571,0v3.928A.785.785,0,0,1,600.971,590.694Z" transform="translate(-600.185 -585.195)" fill="#e8e8e8"/>
                </g>
                <g id="Group_3867" data-name="Group 3867" transform="translate(19.639)">
                  <path id="Path_17228" data-name="Path 17228" d="M610.971,590.694a.786.786,0,0,1-.786-.786v-3.928a.786.786,0,1,1,1.571,0v3.928A.785.785,0,0,1,610.971,590.694Z" transform="translate(-610.185 -585.195)" fill="#e8e8e8"/>
                </g>
                <g id="Group_3868" data-name="Group 3868" transform="translate(23.567)">
                  <path id="Path_17229" data-name="Path 17229" d="M620.971,590.694a.786.786,0,0,1-.786-.786v-3.928a.786.786,0,0,1,1.571,0v3.928A.785.785,0,0,1,620.971,590.694Z" transform="translate(-620.185 -585.195)" fill="#e8e8e8"/>
                </g>
                <g id="Group_3869" data-name="Group 3869" transform="translate(27.495)">
                  <path id="Path_17230" data-name="Path 17230" d="M630.971,590.694a.786.786,0,0,1-.786-.786v-3.928a.786.786,0,0,1,1.571,0v3.928A.785.785,0,0,1,630.971,590.694Z" transform="translate(-630.185 -585.195)" fill="#e8e8e8"/>
                </g>
                <g id="Group_3870" data-name="Group 3870" transform="translate(31.423)">
                  <path id="Path_17231" data-name="Path 17231" d="M640.971,590.694a.786.786,0,0,1-.786-.786v-3.928a.786.786,0,1,1,1.571,0v3.928A.785.785,0,0,1,640.971,590.694Z" transform="translate(-640.185 -585.195)" fill="#e8e8e8"/>
                </g>
                <g id="Group_3871" data-name="Group 3871" transform="translate(35.351)">
                  <path id="Path_17232" data-name="Path 17232" d="M650.971,590.694a.786.786,0,0,1-.786-.786v-3.928a.786.786,0,1,1,1.571,0v3.928A.785.785,0,0,1,650.971,590.694Z" transform="translate(-650.185 -585.195)" fill="#e8e8e8"/>
                </g>
                <g id="Group_3872" data-name="Group 3872" transform="translate(39.279)">
                  <path id="Path_17233" data-name="Path 17233" d="M660.971,590.694a.786.786,0,0,1-.786-.786v-3.928a.786.786,0,1,1,1.571,0v3.928A.785.785,0,0,1,660.971,590.694Z" transform="translate(-660.185 -585.195)" fill="#e8e8e8"/>
                </g>
                <g id="Group_3873" data-name="Group 3873" transform="translate(43.207)">
                  <path id="Path_17234" data-name="Path 17234" d="M670.971,590.694a.786.786,0,0,1-.786-.786v-3.928a.786.786,0,1,1,1.571,0v3.928A.785.785,0,0,1,670.971,590.694Z" transform="translate(-670.185 -585.195)" fill="#e8e8e8"/>
                </g>
                <g id="Group_3874" data-name="Group 3874" transform="translate(47.134)">
                  <path id="Path_17235" data-name="Path 17235" d="M680.971,590.694a.786.786,0,0,1-.786-.786v-3.928a.786.786,0,0,1,1.571,0v3.928A.785.785,0,0,1,680.971,590.694Z" transform="translate(-680.185 -585.195)" fill="#e8e8e8"/>
                </g>
                <g id="Group_3875" data-name="Group 3875" transform="translate(51.062)">
                  <path id="Path_17236" data-name="Path 17236" d="M690.971,590.694a.786.786,0,0,1-.786-.786v-3.928a.786.786,0,1,1,1.571,0v3.928A.785.785,0,0,1,690.971,590.694Z" transform="translate(-690.185 -585.195)" fill="#e8e8e8"/>
                </g>
                <g id="Group_3876" data-name="Group 3876" transform="translate(54.99)">
                  <path id="Path_17237" data-name="Path 17237" d="M700.971,590.694a.786.786,0,0,1-.786-.786v-3.928a.786.786,0,1,1,1.571,0v3.928A.785.785,0,0,1,700.971,590.694Z" transform="translate(-700.185 -585.195)" fill="#e8e8e8"/>
                </g>
                <g id="Group_3877" data-name="Group 3877" transform="translate(58.918)">
                  <path id="Path_17238" data-name="Path 17238" d="M710.971,590.694a.786.786,0,0,1-.786-.786v-3.928a.786.786,0,0,1,1.571,0v3.928A.785.785,0,0,1,710.971,590.694Z" transform="translate(-710.185 -585.195)" fill="#e8e8e8"/>
                </g>
              </g>
              <g id="Group_3895" data-name="Group 3895" transform="translate(0 23.567)">
                <g id="Group_3879" data-name="Group 3879">
                  <path id="Path_17239" data-name="Path 17239" d="M555.971,610.694a.786.786,0,0,1-.786-.786v-3.928a.786.786,0,0,1,1.571,0v3.928A.785.785,0,0,1,555.971,610.694Z" transform="translate(-555.185 -605.195)" fill="#e8e8e8"/>
                </g>
                <g id="Group_3880" data-name="Group 3880" transform="translate(3.928)">
                  <path id="Path_17240" data-name="Path 17240" d="M565.971,610.694a.786.786,0,0,1-.786-.786v-3.928a.786.786,0,0,1,1.571,0v3.928A.785.785,0,0,1,565.971,610.694Z" transform="translate(-565.185 -605.195)" fill="#e8e8e8"/>
                </g>
                <g id="Group_3881" data-name="Group 3881" transform="translate(7.856)">
                  <path id="Path_17241" data-name="Path 17241" d="M575.971,610.694a.786.786,0,0,1-.786-.786v-3.928a.786.786,0,0,1,1.571,0v3.928A.785.785,0,0,1,575.971,610.694Z" transform="translate(-575.185 -605.195)" fill="#e8e8e8"/>
                </g>
                <g id="Group_3882" data-name="Group 3882" transform="translate(11.784)">
                  <path id="Path_17242" data-name="Path 17242" d="M585.971,610.694a.786.786,0,0,1-.786-.786v-3.928a.786.786,0,0,1,1.571,0v3.928A.785.785,0,0,1,585.971,610.694Z" transform="translate(-585.185 -605.195)" fill="#e8e8e8"/>
                </g>
                <g id="Group_3883" data-name="Group 3883" transform="translate(15.711)">
                  <path id="Path_17243" data-name="Path 17243" d="M595.971,610.694a.786.786,0,0,1-.786-.786v-3.928a.786.786,0,0,1,1.571,0v3.928A.785.785,0,0,1,595.971,610.694Z" transform="translate(-595.185 -605.195)" fill="#e8e8e8"/>
                </g>
                <g id="Group_3884" data-name="Group 3884" transform="translate(19.639)">
                  <path id="Path_17244" data-name="Path 17244" d="M605.971,610.694a.786.786,0,0,1-.786-.786v-3.928a.786.786,0,0,1,1.571,0v3.928A.785.785,0,0,1,605.971,610.694Z" transform="translate(-605.185 -605.195)" fill="#e8e8e8"/>
                </g>
                <g id="Group_3885" data-name="Group 3885" transform="translate(23.567)">
                  <path id="Path_17245" data-name="Path 17245" d="M615.971,610.694a.786.786,0,0,1-.786-.786v-3.928a.786.786,0,0,1,1.571,0v3.928A.785.785,0,0,1,615.971,610.694Z" transform="translate(-615.185 -605.195)" fill="#e8e8e8"/>
                </g>
                <g id="Group_3886" data-name="Group 3886" transform="translate(27.495)">
                  <path id="Path_17246" data-name="Path 17246" d="M625.971,610.694a.786.786,0,0,1-.786-.786v-3.928a.786.786,0,0,1,1.571,0v3.928A.785.785,0,0,1,625.971,610.694Z" transform="translate(-625.185 -605.195)" fill="#e8e8e8"/>
                </g>
                <g id="Group_3887" data-name="Group 3887" transform="translate(31.423)">
                  <path id="Path_17247" data-name="Path 17247" d="M635.971,610.694a.786.786,0,0,1-.786-.786v-3.928a.786.786,0,0,1,1.571,0v3.928A.785.785,0,0,1,635.971,610.694Z" transform="translate(-635.185 -605.195)" fill="#e8e8e8"/>
                </g>
                <g id="Group_3888" data-name="Group 3888" transform="translate(35.351)">
                  <path id="Path_17248" data-name="Path 17248" d="M645.971,610.694a.786.786,0,0,1-.786-.786v-3.928a.786.786,0,0,1,1.571,0v3.928A.785.785,0,0,1,645.971,610.694Z" transform="translate(-645.185 -605.195)" fill="#e8e8e8"/>
                </g>
                <g id="Group_3889" data-name="Group 3889" transform="translate(39.279)">
                  <path id="Path_17249" data-name="Path 17249" d="M655.971,610.694a.786.786,0,0,1-.786-.786v-3.928a.786.786,0,0,1,1.571,0v3.928A.785.785,0,0,1,655.971,610.694Z" transform="translate(-655.185 -605.195)" fill="#e8e8e8"/>
                </g>
                <g id="Group_3890" data-name="Group 3890" transform="translate(43.207)">
                  <path id="Path_17250" data-name="Path 17250" d="M665.971,610.694a.786.786,0,0,1-.786-.786v-3.928a.786.786,0,1,1,1.571,0v3.928A.785.785,0,0,1,665.971,610.694Z" transform="translate(-665.185 -605.195)" fill="#e8e8e8"/>
                </g>
                <g id="Group_3891" data-name="Group 3891" transform="translate(47.134)">
                  <path id="Path_17251" data-name="Path 17251" d="M675.971,610.694a.786.786,0,0,1-.786-.786v-3.928a.786.786,0,1,1,1.571,0v3.928A.785.785,0,0,1,675.971,610.694Z" transform="translate(-675.185 -605.195)" fill="#e8e8e8"/>
                </g>
                <g id="Group_3892" data-name="Group 3892" transform="translate(51.062)">
                  <path id="Path_17252" data-name="Path 17252" d="M685.971,610.694a.786.786,0,0,1-.786-.786v-3.928a.786.786,0,0,1,1.571,0v3.928A.785.785,0,0,1,685.971,610.694Z" transform="translate(-685.185 -605.195)" fill="#e8e8e8"/>
                </g>
                <g id="Group_3893" data-name="Group 3893" transform="translate(54.99)">
                  <path id="Path_17253" data-name="Path 17253" d="M695.971,610.694a.786.786,0,0,1-.786-.786v-3.928a.786.786,0,1,1,1.571,0v3.928A.785.785,0,0,1,695.971,610.694Z" transform="translate(-695.185 -605.195)" fill="#e8e8e8"/>
                </g>
                <g id="Group_3894" data-name="Group 3894" transform="translate(58.918)">
                  <path id="Path_17254" data-name="Path 17254" d="M705.971,610.694a.786.786,0,0,1-.786-.786v-3.928a.786.786,0,1,1,1.571,0v3.928A.785.785,0,0,1,705.971,610.694Z" transform="translate(-705.185 -605.195)" fill="#e8e8e8"/>
                </g>
              </g>
              <g id="Group_3912" data-name="Group 3912" transform="translate(1.964 31.423)">
                <g id="Group_3896" data-name="Group 3896">
                  <path id="Path_17255" data-name="Path 17255" d="M560.971,630.694a.786.786,0,0,1-.786-.786v-3.928a.786.786,0,0,1,1.571,0v3.928A.785.785,0,0,1,560.971,630.694Z" transform="translate(-560.185 -625.195)" fill="#e8e8e8"/>
                </g>
                <g id="Group_3897" data-name="Group 3897" transform="translate(3.928)">
                  <path id="Path_17256" data-name="Path 17256" d="M570.971,630.694a.786.786,0,0,1-.786-.786v-3.928a.786.786,0,0,1,1.571,0v3.928A.785.785,0,0,1,570.971,630.694Z" transform="translate(-570.185 -625.195)" fill="#e8e8e8"/>
                </g>
                <g id="Group_3898" data-name="Group 3898" transform="translate(7.856)">
                  <path id="Path_17257" data-name="Path 17257" d="M580.971,630.694a.786.786,0,0,1-.786-.786v-3.928a.786.786,0,1,1,1.571,0v3.928A.785.785,0,0,1,580.971,630.694Z" transform="translate(-580.185 -625.195)" fill="#e8e8e8"/>
                </g>
                <g id="Group_3899" data-name="Group 3899" transform="translate(11.784)">
                  <path id="Path_17258" data-name="Path 17258" d="M590.971,630.694a.786.786,0,0,1-.786-.786v-3.928a.786.786,0,0,1,1.571,0v3.928A.785.785,0,0,1,590.971,630.694Z" transform="translate(-590.185 -625.195)" fill="#e8e8e8"/>
                </g>
                <g id="Group_3900" data-name="Group 3900" transform="translate(15.711)">
                  <path id="Path_17259" data-name="Path 17259" d="M600.971,630.694a.786.786,0,0,1-.786-.786v-3.928a.786.786,0,0,1,1.571,0v3.928A.785.785,0,0,1,600.971,630.694Z" transform="translate(-600.185 -625.195)" fill="#e8e8e8"/>
                </g>
                <g id="Group_3901" data-name="Group 3901" transform="translate(19.639)">
                  <path id="Path_17260" data-name="Path 17260" d="M610.971,630.694a.786.786,0,0,1-.786-.786v-3.928a.786.786,0,1,1,1.571,0v3.928A.785.785,0,0,1,610.971,630.694Z" transform="translate(-610.185 -625.195)" fill="#e8e8e8"/>
                </g>
                <g id="Group_3902" data-name="Group 3902" transform="translate(23.567)">
                  <path id="Path_17261" data-name="Path 17261" d="M620.971,630.694a.786.786,0,0,1-.786-.786v-3.928a.786.786,0,0,1,1.571,0v3.928A.785.785,0,0,1,620.971,630.694Z" transform="translate(-620.185 -625.195)" fill="#e8e8e8"/>
                </g>
                <g id="Group_3903" data-name="Group 3903" transform="translate(27.495)">
                  <path id="Path_17262" data-name="Path 17262" d="M630.971,630.694a.786.786,0,0,1-.786-.786v-3.928a.786.786,0,0,1,1.571,0v3.928A.785.785,0,0,1,630.971,630.694Z" transform="translate(-630.185 -625.195)" fill="#e8e8e8"/>
                </g>
                <g id="Group_3904" data-name="Group 3904" transform="translate(31.423)">
                  <path id="Path_17263" data-name="Path 17263" d="M640.971,630.694a.786.786,0,0,1-.786-.786v-3.928a.786.786,0,1,1,1.571,0v3.928A.785.785,0,0,1,640.971,630.694Z" transform="translate(-640.185 -625.195)" fill="#e8e8e8"/>
                </g>
                <g id="Group_3905" data-name="Group 3905" transform="translate(35.351)">
                  <path id="Path_17264" data-name="Path 17264" d="M650.971,630.694a.786.786,0,0,1-.786-.786v-3.928a.786.786,0,1,1,1.571,0v3.928A.785.785,0,0,1,650.971,630.694Z" transform="translate(-650.185 -625.195)" fill="#e8e8e8"/>
                </g>
                <g id="Group_3906" data-name="Group 3906" transform="translate(39.279)">
                  <path id="Path_17265" data-name="Path 17265" d="M660.971,630.694a.786.786,0,0,1-.786-.786v-3.928a.786.786,0,1,1,1.571,0v3.928A.785.785,0,0,1,660.971,630.694Z" transform="translate(-660.185 -625.195)" fill="#e8e8e8"/>
                </g>
                <g id="Group_3907" data-name="Group 3907" transform="translate(43.207)">
                  <path id="Path_17266" data-name="Path 17266" d="M670.971,630.694a.786.786,0,0,1-.786-.786v-3.928a.786.786,0,1,1,1.571,0v3.928A.785.785,0,0,1,670.971,630.694Z" transform="translate(-670.185 -625.195)" fill="#e8e8e8"/>
                </g>
                <g id="Group_3908" data-name="Group 3908" transform="translate(47.134)">
                  <path id="Path_17267" data-name="Path 17267" d="M680.971,630.694a.786.786,0,0,1-.786-.786v-3.928a.786.786,0,0,1,1.571,0v3.928A.785.785,0,0,1,680.971,630.694Z" transform="translate(-680.185 -625.195)" fill="#e8e8e8"/>
                </g>
                <g id="Group_3909" data-name="Group 3909" transform="translate(51.062)">
                  <path id="Path_17268" data-name="Path 17268" d="M690.971,630.694a.786.786,0,0,1-.786-.786v-3.928a.786.786,0,1,1,1.571,0v3.928A.785.785,0,0,1,690.971,630.694Z" transform="translate(-690.185 -625.195)" fill="#e8e8e8"/>
                </g>
                <g id="Group_3910" data-name="Group 3910" transform="translate(54.99)">
                  <path id="Path_17269" data-name="Path 17269" d="M700.971,630.694a.786.786,0,0,1-.786-.786v-3.928a.786.786,0,1,1,1.571,0v3.928A.785.785,0,0,1,700.971,630.694Z" transform="translate(-700.185 -625.195)" fill="#e8e8e8"/>
                </g>
                <g id="Group_3911" data-name="Group 3911" transform="translate(58.918)">
                  <path id="Path_17270" data-name="Path 17270" d="M710.971,630.694a.786.786,0,0,1-.786-.786v-3.928a.786.786,0,0,1,1.571,0v3.928A.785.785,0,0,1,710.971,630.694Z" transform="translate(-710.185 -625.195)" fill="#e8e8e8"/>
                </g>
              </g>
              <g id="Group_3929" data-name="Group 3929" transform="translate(0 39.279)">
                <g id="Group_3913" data-name="Group 3913">
                  <path id="Path_17271" data-name="Path 17271" d="M555.971,650.694a.786.786,0,0,1-.786-.786v-3.928a.786.786,0,0,1,1.571,0v3.928A.785.785,0,0,1,555.971,650.694Z" transform="translate(-555.185 -645.195)" fill="#e8e8e8"/>
                </g>
                <g id="Group_3914" data-name="Group 3914" transform="translate(3.928)">
                  <path id="Path_17272" data-name="Path 17272" d="M565.971,650.694a.786.786,0,0,1-.786-.786v-3.928a.786.786,0,0,1,1.571,0v3.928A.785.785,0,0,1,565.971,650.694Z" transform="translate(-565.185 -645.195)" fill="#e8e8e8"/>
                </g>
                <g id="Group_3915" data-name="Group 3915" transform="translate(7.856)">
                  <path id="Path_17273" data-name="Path 17273" d="M575.971,650.694a.786.786,0,0,1-.786-.786v-3.928a.786.786,0,0,1,1.571,0v3.928A.785.785,0,0,1,575.971,650.694Z" transform="translate(-575.185 -645.195)" fill="#e8e8e8"/>
                </g>
                <g id="Group_3916" data-name="Group 3916" transform="translate(11.784)">
                  <path id="Path_17274" data-name="Path 17274" d="M585.971,650.694a.786.786,0,0,1-.786-.786v-3.928a.786.786,0,0,1,1.571,0v3.928A.785.785,0,0,1,585.971,650.694Z" transform="translate(-585.185 -645.195)" fill="#e8e8e8"/>
                </g>
                <g id="Group_3917" data-name="Group 3917" transform="translate(15.711)">
                  <path id="Path_17275" data-name="Path 17275" d="M595.971,650.694a.786.786,0,0,1-.786-.786v-3.928a.786.786,0,0,1,1.571,0v3.928A.785.785,0,0,1,595.971,650.694Z" transform="translate(-595.185 -645.195)" fill="#e8e8e8"/>
                </g>
                <g id="Group_3918" data-name="Group 3918" transform="translate(19.639)">
                  <path id="Path_17276" data-name="Path 17276" d="M605.971,650.694a.786.786,0,0,1-.786-.786v-3.928a.786.786,0,0,1,1.571,0v3.928A.785.785,0,0,1,605.971,650.694Z" transform="translate(-605.185 -645.195)" fill="#e8e8e8"/>
                </g>
                <g id="Group_3919" data-name="Group 3919" transform="translate(23.567)">
                  <path id="Path_17277" data-name="Path 17277" d="M615.971,650.694a.786.786,0,0,1-.786-.786v-3.928a.786.786,0,0,1,1.571,0v3.928A.785.785,0,0,1,615.971,650.694Z" transform="translate(-615.185 -645.195)" fill="#e8e8e8"/>
                </g>
                <g id="Group_3920" data-name="Group 3920" transform="translate(27.495)">
                  <path id="Path_17278" data-name="Path 17278" d="M625.971,650.694a.786.786,0,0,1-.786-.786v-3.928a.786.786,0,0,1,1.571,0v3.928A.785.785,0,0,1,625.971,650.694Z" transform="translate(-625.185 -645.195)" fill="#e8e8e8"/>
                </g>
                <g id="Group_3921" data-name="Group 3921" transform="translate(31.423)">
                  <path id="Path_17279" data-name="Path 17279" d="M635.971,650.694a.786.786,0,0,1-.786-.786v-3.928a.786.786,0,0,1,1.571,0v3.928A.785.785,0,0,1,635.971,650.694Z" transform="translate(-635.185 -645.195)" fill="#e8e8e8"/>
                </g>
                <g id="Group_3922" data-name="Group 3922" transform="translate(35.351)">
                  <path id="Path_17280" data-name="Path 17280" d="M645.971,650.694a.786.786,0,0,1-.786-.786v-3.928a.786.786,0,0,1,1.571,0v3.928A.785.785,0,0,1,645.971,650.694Z" transform="translate(-645.185 -645.195)" fill="#e8e8e8"/>
                </g>
                <g id="Group_3923" data-name="Group 3923" transform="translate(39.279)">
                  <path id="Path_17281" data-name="Path 17281" d="M655.971,650.694a.786.786,0,0,1-.786-.786v-3.928a.786.786,0,0,1,1.571,0v3.928A.785.785,0,0,1,655.971,650.694Z" transform="translate(-655.185 -645.195)" fill="#e8e8e8"/>
                </g>
                <g id="Group_3924" data-name="Group 3924" transform="translate(43.207)">
                  <path id="Path_17282" data-name="Path 17282" d="M665.971,650.694a.786.786,0,0,1-.786-.786v-3.928a.786.786,0,1,1,1.571,0v3.928A.785.785,0,0,1,665.971,650.694Z" transform="translate(-665.185 -645.195)" fill="#e8e8e8"/>
                </g>
                <g id="Group_3925" data-name="Group 3925" transform="translate(47.134)">
                  <path id="Path_17283" data-name="Path 17283" d="M675.971,650.694a.786.786,0,0,1-.786-.786v-3.928a.786.786,0,1,1,1.571,0v3.928A.785.785,0,0,1,675.971,650.694Z" transform="translate(-675.185 -645.195)" fill="#e8e8e8"/>
                </g>
                <g id="Group_3926" data-name="Group 3926" transform="translate(51.062)">
                  <path id="Path_17284" data-name="Path 17284" d="M685.971,650.694a.786.786,0,0,1-.786-.786v-3.928a.786.786,0,0,1,1.571,0v3.928A.785.785,0,0,1,685.971,650.694Z" transform="translate(-685.185 -645.195)" fill="#e8e8e8"/>
                </g>
                <g id="Group_3927" data-name="Group 3927" transform="translate(54.99)">
                  <path id="Path_17285" data-name="Path 17285" d="M695.971,650.694a.786.786,0,0,1-.786-.786v-3.928a.786.786,0,1,1,1.571,0v3.928A.785.785,0,0,1,695.971,650.694Z" transform="translate(-695.185 -645.195)" fill="#e8e8e8"/>
                </g>
                <g id="Group_3928" data-name="Group 3928" transform="translate(58.918)">
                  <path id="Path_17286" data-name="Path 17286" d="M705.971,650.694a.786.786,0,0,1-.786-.786v-3.928a.786.786,0,1,1,1.571,0v3.928A.785.785,0,0,1,705.971,650.694Z" transform="translate(-705.185 -645.195)" fill="#e8e8e8"/>
                </g>
              </g>
              <g id="Group_3946" data-name="Group 3946" transform="translate(1.964 47.134)">
                <g id="Group_3930" data-name="Group 3930">
                  <path id="Path_17287" data-name="Path 17287" d="M560.971,670.694a.786.786,0,0,1-.786-.786v-3.928a.786.786,0,0,1,1.571,0v3.928A.785.785,0,0,1,560.971,670.694Z" transform="translate(-560.185 -665.195)" fill="#e8e8e8"/>
                </g>
                <g id="Group_3931" data-name="Group 3931" transform="translate(3.928)">
                  <path id="Path_17288" data-name="Path 17288" d="M570.971,670.694a.786.786,0,0,1-.786-.786v-3.928a.786.786,0,0,1,1.571,0v3.928A.785.785,0,0,1,570.971,670.694Z" transform="translate(-570.185 -665.195)" fill="#e8e8e8"/>
                </g>
                <g id="Group_3932" data-name="Group 3932" transform="translate(7.856)">
                  <path id="Path_17289" data-name="Path 17289" d="M580.971,670.694a.786.786,0,0,1-.786-.786v-3.928a.786.786,0,0,1,1.571,0v3.928A.785.785,0,0,1,580.971,670.694Z" transform="translate(-580.185 -665.195)" fill="#e8e8e8"/>
                </g>
                <g id="Group_3933" data-name="Group 3933" transform="translate(11.784)">
                  <path id="Path_17290" data-name="Path 17290" d="M590.971,670.694a.786.786,0,0,1-.786-.786v-3.928a.786.786,0,0,1,1.571,0v3.928A.785.785,0,0,1,590.971,670.694Z" transform="translate(-590.185 -665.195)" fill="#e8e8e8"/>
                </g>
                <g id="Group_3934" data-name="Group 3934" transform="translate(15.711)">
                  <path id="Path_17291" data-name="Path 17291" d="M600.971,670.694a.786.786,0,0,1-.786-.786v-3.928a.786.786,0,0,1,1.571,0v3.928A.785.785,0,0,1,600.971,670.694Z" transform="translate(-600.185 -665.195)" fill="#e8e8e8"/>
                </g>
                <g id="Group_3935" data-name="Group 3935" transform="translate(19.639)">
                  <path id="Path_17292" data-name="Path 17292" d="M610.971,670.694a.786.786,0,0,1-.786-.786v-3.928a.786.786,0,0,1,1.571,0v3.928A.785.785,0,0,1,610.971,670.694Z" transform="translate(-610.185 -665.195)" fill="#e8e8e8"/>
                </g>
                <g id="Group_3936" data-name="Group 3936" transform="translate(23.567)">
                  <path id="Path_17293" data-name="Path 17293" d="M620.971,670.694a.786.786,0,0,1-.786-.786v-3.928a.786.786,0,0,1,1.571,0v3.928A.785.785,0,0,1,620.971,670.694Z" transform="translate(-620.185 -665.195)" fill="#e8e8e8"/>
                </g>
                <g id="Group_3937" data-name="Group 3937" transform="translate(27.495)">
                  <path id="Path_17294" data-name="Path 17294" d="M630.971,670.694a.786.786,0,0,1-.786-.786v-3.928a.786.786,0,0,1,1.571,0v3.928A.785.785,0,0,1,630.971,670.694Z" transform="translate(-630.185 -665.195)" fill="#e8e8e8"/>
                </g>
                <g id="Group_3938" data-name="Group 3938" transform="translate(31.423)">
                  <path id="Path_17295" data-name="Path 17295" d="M640.971,670.694a.786.786,0,0,1-.786-.786v-3.928a.786.786,0,0,1,1.571,0v3.928A.785.785,0,0,1,640.971,670.694Z" transform="translate(-640.185 -665.195)" fill="#e8e8e8"/>
                </g>
                <g id="Group_3939" data-name="Group 3939" transform="translate(35.351)">
                  <path id="Path_17296" data-name="Path 17296" d="M650.971,670.694a.786.786,0,0,1-.786-.786v-3.928a.786.786,0,0,1,1.571,0v3.928A.785.785,0,0,1,650.971,670.694Z" transform="translate(-650.185 -665.195)" fill="#e8e8e8"/>
                </g>
                <g id="Group_3940" data-name="Group 3940" transform="translate(39.279)">
                  <path id="Path_17297" data-name="Path 17297" d="M660.971,670.694a.786.786,0,0,1-.786-.786v-3.928a.786.786,0,0,1,1.571,0v3.928A.785.785,0,0,1,660.971,670.694Z" transform="translate(-660.185 -665.195)" fill="#e8e8e8"/>
                </g>
                <g id="Group_3941" data-name="Group 3941" transform="translate(43.207)">
                  <path id="Path_17298" data-name="Path 17298" d="M670.971,670.694a.786.786,0,0,1-.786-.786v-3.928a.786.786,0,0,1,1.571,0v3.928A.785.785,0,0,1,670.971,670.694Z" transform="translate(-670.185 -665.195)" fill="#e8e8e8"/>
                </g>
                <g id="Group_3942" data-name="Group 3942" transform="translate(47.134)">
                  <path id="Path_17299" data-name="Path 17299" d="M680.971,670.694a.786.786,0,0,1-.786-.786v-3.928a.786.786,0,0,1,1.571,0v3.928A.785.785,0,0,1,680.971,670.694Z" transform="translate(-680.185 -665.195)" fill="#e8e8e8"/>
                </g>
                <g id="Group_3943" data-name="Group 3943" transform="translate(51.062)">
                  <path id="Path_17300" data-name="Path 17300" d="M690.971,670.694a.786.786,0,0,1-.786-.786v-3.928a.786.786,0,0,1,1.571,0v3.928A.785.785,0,0,1,690.971,670.694Z" transform="translate(-690.185 -665.195)" fill="#e8e8e8"/>
                </g>
                <g id="Group_3944" data-name="Group 3944" transform="translate(54.99)">
                  <path id="Path_17301" data-name="Path 17301" d="M700.971,670.694a.786.786,0,0,1-.786-.786v-3.928a.786.786,0,0,1,1.571,0v3.928A.785.785,0,0,1,700.971,670.694Z" transform="translate(-700.185 -665.195)" fill="#e8e8e8"/>
                </g>
                <g id="Group_3945" data-name="Group 3945" transform="translate(58.918)">
                  <path id="Path_17302" data-name="Path 17302" d="M710.971,670.694a.786.786,0,0,1-.786-.786v-3.928a.786.786,0,0,1,1.571,0v3.928A.785.785,0,0,1,710.971,670.694Z" transform="translate(-710.185 -665.195)" fill="#e8e8e8"/>
                </g>
              </g>
              <g id="Group_3963" data-name="Group 3963" transform="translate(0 54.99)">
                <g id="Group_3947" data-name="Group 3947">
                  <path id="Path_17303" data-name="Path 17303" d="M555.971,690.694a.786.786,0,0,1-.786-.786v-3.928a.786.786,0,0,1,1.571,0v3.928A.785.785,0,0,1,555.971,690.694Z" transform="translate(-555.185 -685.195)" fill="#e8e8e8"/>
                </g>
                <g id="Group_3948" data-name="Group 3948" transform="translate(3.928)">
                  <path id="Path_17304" data-name="Path 17304" d="M565.971,690.694a.786.786,0,0,1-.786-.786v-3.928a.786.786,0,0,1,1.571,0v3.928A.785.785,0,0,1,565.971,690.694Z" transform="translate(-565.185 -685.195)" fill="#e8e8e8"/>
                </g>
                <g id="Group_3949" data-name="Group 3949" transform="translate(7.856)">
                  <path id="Path_17305" data-name="Path 17305" d="M575.971,690.694a.786.786,0,0,1-.786-.786v-3.928a.786.786,0,0,1,1.571,0v3.928A.785.785,0,0,1,575.971,690.694Z" transform="translate(-575.185 -685.195)" fill="#e8e8e8"/>
                </g>
                <g id="Group_3950" data-name="Group 3950" transform="translate(11.784)">
                  <path id="Path_17306" data-name="Path 17306" d="M585.971,690.694a.786.786,0,0,1-.786-.786v-3.928a.786.786,0,0,1,1.571,0v3.928A.785.785,0,0,1,585.971,690.694Z" transform="translate(-585.185 -685.195)" fill="#e8e8e8"/>
                </g>
                <g id="Group_3951" data-name="Group 3951" transform="translate(15.711)">
                  <path id="Path_17307" data-name="Path 17307" d="M595.971,690.694a.786.786,0,0,1-.786-.786v-3.928a.786.786,0,0,1,1.571,0v3.928A.785.785,0,0,1,595.971,690.694Z" transform="translate(-595.185 -685.195)" fill="#e8e8e8"/>
                </g>
                <g id="Group_3952" data-name="Group 3952" transform="translate(19.639)">
                  <path id="Path_17308" data-name="Path 17308" d="M605.971,690.694a.786.786,0,0,1-.786-.786v-3.928a.786.786,0,0,1,1.571,0v3.928A.785.785,0,0,1,605.971,690.694Z" transform="translate(-605.185 -685.195)" fill="#e8e8e8"/>
                </g>
                <g id="Group_3953" data-name="Group 3953" transform="translate(23.567)">
                  <path id="Path_17309" data-name="Path 17309" d="M615.971,690.694a.786.786,0,0,1-.786-.786v-3.928a.786.786,0,0,1,1.571,0v3.928A.785.785,0,0,1,615.971,690.694Z" transform="translate(-615.185 -685.195)" fill="#e8e8e8"/>
                </g>
                <g id="Group_3954" data-name="Group 3954" transform="translate(27.495)">
                  <path id="Path_17310" data-name="Path 17310" d="M625.971,690.694a.786.786,0,0,1-.786-.786v-3.928a.786.786,0,0,1,1.571,0v3.928A.785.785,0,0,1,625.971,690.694Z" transform="translate(-625.185 -685.195)" fill="#e8e8e8"/>
                </g>
                <g id="Group_3955" data-name="Group 3955" transform="translate(31.423)">
                  <path id="Path_17311" data-name="Path 17311" d="M635.971,690.694a.786.786,0,0,1-.786-.786v-3.928a.786.786,0,0,1,1.571,0v3.928A.785.785,0,0,1,635.971,690.694Z" transform="translate(-635.185 -685.195)" fill="#e8e8e8"/>
                </g>
                <g id="Group_3956" data-name="Group 3956" transform="translate(35.351)">
                  <path id="Path_17312" data-name="Path 17312" d="M645.971,690.694a.786.786,0,0,1-.786-.786v-3.928a.786.786,0,0,1,1.571,0v3.928A.785.785,0,0,1,645.971,690.694Z" transform="translate(-645.185 -685.195)" fill="#e8e8e8"/>
                </g>
                <g id="Group_3957" data-name="Group 3957" transform="translate(39.279)">
                  <path id="Path_17313" data-name="Path 17313" d="M655.971,690.694a.786.786,0,0,1-.786-.786v-3.928a.786.786,0,0,1,1.571,0v3.928A.785.785,0,0,1,655.971,690.694Z" transform="translate(-655.185 -685.195)" fill="#e8e8e8"/>
                </g>
                <g id="Group_3958" data-name="Group 3958" transform="translate(43.207)">
                  <path id="Path_17314" data-name="Path 17314" d="M665.971,690.694a.786.786,0,0,1-.786-.786v-3.928a.786.786,0,1,1,1.571,0v3.928A.785.785,0,0,1,665.971,690.694Z" transform="translate(-665.185 -685.195)" fill="#e8e8e8"/>
                </g>
                <g id="Group_3959" data-name="Group 3959" transform="translate(47.134)">
                  <path id="Path_17315" data-name="Path 17315" d="M675.971,690.694a.786.786,0,0,1-.786-.786v-3.928a.786.786,0,1,1,1.571,0v3.928A.785.785,0,0,1,675.971,690.694Z" transform="translate(-675.185 -685.195)" fill="#e8e8e8"/>
                </g>
                <g id="Group_3960" data-name="Group 3960" transform="translate(51.062)">
                  <path id="Path_17316" data-name="Path 17316" d="M685.971,690.694a.786.786,0,0,1-.786-.786v-3.928a.786.786,0,0,1,1.571,0v3.928A.785.785,0,0,1,685.971,690.694Z" transform="translate(-685.185 -685.195)" fill="#e8e8e8"/>
                </g>
                <g id="Group_3961" data-name="Group 3961" transform="translate(54.99)">
                  <path id="Path_17317" data-name="Path 17317" d="M695.971,690.694a.786.786,0,0,1-.786-.786v-3.928a.786.786,0,1,1,1.571,0v3.928A.785.785,0,0,1,695.971,690.694Z" transform="translate(-695.185 -685.195)" fill="#e8e8e8"/>
                </g>
                <g id="Group_3962" data-name="Group 3962" transform="translate(58.918)">
                  <path id="Path_17318" data-name="Path 17318" d="M705.971,690.694a.786.786,0,0,1-.786-.786v-3.928a.786.786,0,1,1,1.571,0v3.928A.785.785,0,0,1,705.971,690.694Z" transform="translate(-705.185 -685.195)" fill="#e8e8e8"/>
                </g>
              </g>
            </g>
          </g>
        </g>
        <path id="Path_17320" data-name="Path 17320" d="M606.618,538.817l-5.326-3.669c-1.68-1.158-3.893-2.232-5.332-3.672-1.351-1.352.078-2.5,1.12-3.894a26.7,26.7,0,0,1,3.041-3.454c4.4-4.136,9.99-5.2,15.427-2.384a22.367,22.367,0,0,1,7.791,7.3c1.348,1.949-.286,3.191-1.742,4.73a24,24,0,0,1-4.376,3.642,6.936,6.936,0,0,1-4.613,1.432c-1.629-.24-3.113-1.913-2.586-3.473Z" transform="translate(-576.017 -478.427)" fill="#e8e8e8"/>
        <g id="Group_3967" data-name="Group 3967" transform="translate(0 100.612)">
          <path id="Path_17321" data-name="Path 17321" d="M609.51,679.457a495.872,495.872,0,0,1,3.9,60.083l1.138-.3c-2.028-4.541-4.37-8.961-6.824-13.282-4.472-7.872-9.511-15.765-16.03-22.116-5.2-5.069-11.784-9.037-19.168-6.422-7.681,2.72-13.29,10.008-17.617,16.556a101.775,101.775,0,0,0-8.87,16.349l1.133-.242c.4-15,.725-30.018,1.639-44.991a145.543,145.543,0,0,1,1.96-14.869c.055-.332-1.076-.134-1.128.18-.729,4.409-1.541,8.818-1.859,13.281-.28,3.924-.441,7.858-.6,11.789-.391,9.4-.686,18.8-.959,28.2q-.1,3.357-.188,6.714c-.008.3,1.042-.028,1.133-.243a102.041,102.041,0,0,1,6.388-12.391c4.138-6.948,9.28-14.521,16.451-18.638a13.121,13.121,0,0,1,10.9-1.409,26.131,26.131,0,0,1,9.43,6.26c6.309,6.042,11.2,13.559,15.554,21.079a156.438,156.438,0,0,1,7.521,14.5c.137.307,1.139.017,1.138-.3a495.966,495.966,0,0,0-3.9-60.083c-.035-.278-1.182-.041-1.138.3Z" transform="translate(-546.037 -670.045)" fill="#262626"/>
        </g>
        <g id="Group_3968" data-name="Group 3968" transform="translate(43.656 46.61)">
          <path id="Path_17322" data-name="Path 17322" d="M677.849,593.437a243.955,243.955,0,0,0-6.7-34.282,106.237,106.237,0,0,0-4.415-12.89c-2.062-4.835-4.632-9.967-8.47-13.656-.2-.191-1.214.242-1.076.374,3.966,3.813,6.579,9.191,8.666,14.2a111.345,111.345,0,0,1,4.26,12.643,241.509,241.509,0,0,1,6.593,33.917c.024.183,1.173-.042,1.138-.3Z" transform="translate(-657.18 -532.561)" fill="#262626"/>
        </g>
        <g id="Group_3969" data-name="Group 3969" transform="translate(4.194 48.318)">
          <path id="Path_17323" data-name="Path 17323" d="M557.876,585.905a216.232,216.232,0,0,1,6.049-25.761c2.436-7.888,5.414-16.026,10.467-22.651.44-.577-.631-.782-.958-.354-5.109,6.7-8.138,14.884-10.6,22.862a218.038,218.038,0,0,0-6.113,25.983c-.1.581,1.061.446,1.155-.08Z" transform="translate(-556.714 -536.911)" fill="#262626"/>
        </g>
        <path id="Path_17324" data-name="Path 17324" d="M621.536,551.662a18.548,18.548,0,0,1-5.726,5.075,26.291,26.291,0,0,1-2.883,1.469l-2.513-4.127c-.159-.261-.748-.555-1.028-.314-.229.2-2.081,2.833-2.7,3.464-.369.376-.55.745-1.1.527a4.257,4.257,0,0,1-.929-.745q-3.742-2.968-7.492-5.926c-.806-.637-2.719.533-1.7,1.341l9.435,7.463a1.4,1.4,0,0,0,1.779-.315l2.5-3.175,1.295,2.128c.654,1.074.925,1.762,2.291,1.408,4.167-1.079,8.011-4.179,10.625-7.562C624.274,551.237,622.187,550.82,621.536,551.662Z" transform="translate(-575.874 -497.088)" fill="#f2f2f2"/>
        <g id="Group_3970" data-name="Group 3970" transform="translate(20.528 53.28)">
          <path id="Path_17325" data-name="Path 17325" d="M611.248,552.415l-3.735,4.877,1.055-.223-9.165-7.463c-.275-.224-1.313.216-1.064.418l9.165,7.463c.247.2.876.012,1.055-.223l3.735-4.877c.269-.352-.849-.23-1.046.027Z" transform="translate(-598.3 -549.544)" fill="#262626"/>
        </g>
        <g id="Group_3971" data-name="Group 3971" transform="translate(33.23 53.584)">
          <path id="Path_17326" data-name="Path 17326" d="M630.648,553.27l2.738,4.631a.341.341,0,0,0,.334.12c1.332-.067,2.884-1.067,4.054-1.676a19.757,19.757,0,0,0,6.654-5.815c.262-.348-.854-.219-1.044.035a17.4,17.4,0,0,1-7.207,5.99c-.407.192-.848.347-1.241.564-.108.059-.931.28-.553.368.247.058-.195-.46-.325-.681l-.9-1.525-1.369-2.315c-.193-.326-1.271.079-1.138.305Z" transform="translate(-630.637 -550.317)" fill="#262626"/>
        </g>
        <g id="Group_3974" data-name="Group 3974" transform="translate(8.292)">
          <path id="Path_17327" data-name="Path 17327" d="M613.535,448.9c-2.537-12.323-10.018-21.2-16.711-19.82s-10.062,12.484-7.526,24.808l.454,2.209c1.406,6.833,2.967,11.474,4.666,14.579,3.491,6.381,12.255,7.541,12.255,7.541s7.8-4.513,8.692-11.043c.488-3.574.145-8.679-1.375-16.065Z" transform="translate(-580.085 -423.029)" fill="#fff"/>
          <path id="Path_17328" data-name="Path 17328" d="M597.824,428.016c1.787-3.76.293-8.565-2.9-11.232s-7.716-3.375-11.8-2.58A27.534,27.534,0,0,0,572,419.654c-2.112,1.6-4.22,3.552-4.741,6.148a7.514,7.514,0,0,0,3.184,7.272,12.318,12.318,0,0,0,7.982,1.98,36.167,36.167,0,0,0,8.174-1.8,14.879,14.879,0,0,0,4.9-2.167,5.078,5.078,0,0,0,2.142-4.658Z" transform="translate(-567.148 -413.897)" fill="#dbdbdb"/>
          <g id="Group_3972" data-name="Group 3972" transform="translate(7.795 5.623)">
            <path id="Path_17329" data-name="Path 17329" d="M613.217,448.306c-1.531-7.155-5.486-17.728-13.554-19.807-6.792-1.751-10.854,4.91-12.043,10.61a36.488,36.488,0,0,0,.221,14.491,80.43,80.43,0,0,0,3.468,13.147c1.66,4.34,4.158,7.595,8.476,9.58,1.579.726,3.8,1.769,5.6,1.688,1.639-.074,3.26-1.828,4.387-2.833a15,15,0,0,0,5.479-11.468c.083-5.2-.991-10.343-2.033-15.407-.062-.3-1.206-.026-1.138.305a98.715,98.715,0,0,1,1.872,11.395c.285,3.306.454,6.9-1.022,9.964a17.507,17.507,0,0,1-4.548,5.554,7.649,7.649,0,0,1-2.564,1.792c-1.124.286-2.937-.588-4.045-1.023a15.2,15.2,0,0,1-8.784-8.516,61.8,61.8,0,0,1-3.4-11.524,51.461,51.461,0,0,1-1.452-11.529c.085-5.636,2.356-17.792,10.6-15.741,3.313.824,5.94,3.581,7.841,6.273a36.164,36.164,0,0,1,5.5,13.356C612.143,448.913,613.288,448.635,613.217,448.306Z" transform="translate(-586.992 -428.214)" fill="#262626"/>
          </g>
          <g id="Group_3973" data-name="Group 3973" transform="translate(17.436 36.704)">
            <path id="Path_17330" data-name="Path 17330" d="M619.962,509.656c-2-3.738-7.547-2.694-8.416,1.321-.109.5,1.048.343,1.147-.111.72-3.325,4.685-3.6,6.221-.733.21.391,1.308.007,1.049-.477Z" transform="translate(-611.539 -507.343)" fill="#262626"/>
          </g>
        </g>
        <g id="Group_3975" data-name="Group 3975" transform="translate(5.84 102.21)">
          <path id="Path_17331" data-name="Path 17331" d="M616.454,679.682c-9.3.069-18.737.343-28.012-.49a123.623,123.623,0,0,1-16.681-2.932c-2.7-.622-5.38-1.319-8.085-1.9-.718-.155-3.281-.776-2.68.863.422,1.151,3.2,1.949,4.224,2.313a56.272,56.272,0,0,0,6.774,1.6,110.461,110.461,0,0,0,13.576,2.22c9.606.863,19.375.6,29.01.529.849-.006,2.571-.328,3.026-1.163C618.078,679.851,617.2,679.676,616.454,679.682Z" transform="translate(-560.906 -674.114)" fill="#d6d6d6"/>
        </g>
        <g id="Group_3976" data-name="Group 3976" transform="translate(49.229 113.019)">
          <path id="Path_17332" data-name="Path 17332" d="M671.442,703.362a14.4,14.4,0,0,0,5.734,7,2.2,2.2,0,0,0,2.453-.189c.548-.433.907-1.361.166-1.829a12.246,12.246,0,0,1-4.938-5.9c-.622-1.583-4.021-.626-3.414.915Z" transform="translate(-671.37 -701.634)" fill="#d6d6d6"/>
        </g>
        <g id="Group_3977" data-name="Group 3977" transform="translate(6.229 100.899)">
          <path id="Path_17333" data-name="Path 17333" d="M616.249,677.178c-8.966-.121-18-.168-26.932-.975-8.632-.779-17.205-3.31-25.592-5.4-.966-.241-2.69,1.178-1.318,1.519,8.552,2.13,17.315,4.722,26.117,5.516,9.13.824,18.357.861,27.517.984,1.294.017,1.751-1.625.208-1.646Z" transform="translate(-561.896 -670.777)" fill="#262626"/>
        </g>
        <g id="Group_3978" data-name="Group 3978" transform="translate(51.733 112.986)">
          <path id="Path_17334" data-name="Path 17334" d="M677.756,702.012a13.446,13.446,0,0,0,5.375,6.515c.321.2,1.335-.258,1.061-.432a13.188,13.188,0,0,1-5.3-6.388c-.145-.367-1.268-.025-1.138.3Z" transform="translate(-677.746 -701.549)" fill="#262626"/>
        </g>
        <g id="Group_3979" data-name="Group 3979" transform="translate(3.517 58.386)">
          <path id="Path_17335" data-name="Path 17335" d="M565.954,562.623c-6.912,3.61-8.7,13.589-9.945,20.509a71.129,71.129,0,0,0,1.763,31.488c.114.411,1.253.106,1.138-.305A70.053,70.053,0,0,1,557,583.822a67.852,67.852,0,0,1,2.762-11.242c1.325-3.7,3.268-7.7,6.9-9.6.676-.353-.325-.562-.712-.36Z" transform="translate(-554.992 -562.543)" fill="#262626"/>
        </g>
        <g id="Group_3984" data-name="Group 3984" transform="translate(4.341 107.386)">
          <path id="Path_17336" data-name="Path 17336" d="M565.568,688.559a8.969,8.969,0,0,1-3.96,5.42c-.6.381-.857,1.171-.219,1.633a2.384,2.384,0,0,0,2.439-.24,11.84,11.84,0,0,0,5.186-7.124c.392-1.521-3.086-1.085-3.446.311Z" transform="translate(-559.474 -687.292)" fill="#d6d6d6"/>
          <path id="Path_17337" data-name="Path 17337" d="M565.609,712.711q.047,1.216.094,2.433a4.563,4.563,0,0,0,.046,1.22c.111.289.493.267.8.174a.9.9,0,0,0,.574-.5,1.516,1.516,0,0,0-.04-.927,10.426,10.426,0,0,1-.331-2.7C566.733,712.035,565.592,712.264,565.609,712.711Z" transform="translate(-562.262 -702.429)" fill="#d6d6d6"/>
          <path id="Path_17338" data-name="Path 17338" d="M571.89,707.949l1.178.982a.524.524,0,0,0,.86-.354c.044-.449-.669-.814-.982-1.075a.767.767,0,0,0-.754-.014C572.077,707.536,571.688,707.78,571.89,707.949Z" transform="translate(-566.042 -699.498)" fill="#d6d6d6"/>
          <path id="Path_17339" data-name="Path 17339" d="M559.406,714.908c-.114.261-.5.832-.485,1.108.031.426.638.516.891.261a5.421,5.421,0,0,0,.719-1.558c.088-.2-.386-.148-.462-.135C559.876,714.615,559.5,714.7,559.406,714.908Z" transform="translate(-558.201 -703.854)" fill="#d6d6d6"/>
          <g id="Group_3980" data-name="Group 3980" transform="translate(1.988 0.457)">
            <path id="Path_17340" data-name="Path 17340" d="M566.7,688.757a10.216,10.216,0,0,1-4.444,6.167c-.453.286.671.116.862,0a10.584,10.584,0,0,0,4.7-6.377c.048-.186-1.05-.051-1.119.215Z" transform="translate(-562.15 -688.456)" fill="#262626"/>
          </g>
          <g id="Group_3981" data-name="Group 3981" transform="translate(2.744 9.41)">
            <path id="Path_17341" data-name="Path 17341" d="M564.075,711.688q.075,1.965.15,3.93c.021.551,1.165.341,1.147-.109q-.075-1.965-.15-3.93c-.021-.551-1.164-.341-1.147.109Z" transform="translate(-564.075 -711.249)" fill="#262626"/>
          </g>
          <g id="Group_3982" data-name="Group 3982" transform="translate(4.813 7.788)">
            <path id="Path_17342" data-name="Path 17342" d="M569.488,707.9l1.178.982c.406.339,1.387-.246.873-.675l-1.178-.982c-.406-.339-1.387.247-.873.675Z" transform="translate(-569.342 -707.12)" fill="#262626"/>
          </g>
          <g id="Group_3983" data-name="Group 3983" transform="translate(0 10.394)">
            <path id="Path_17343" data-name="Path 17343" d="M557.7,714.085l-.6,1.371c-.082.188.388.121.455.109.179-.032.581-.111.667-.31l.6-1.371c.082-.189-.388-.121-.455-.109-.179.031-.581.111-.667.31Z" transform="translate(-557.09 -713.754)" fill="#262626"/>
          </g>
        </g>
        <g id="Group_3987" data-name="Group 3987" transform="translate(38.435 67.851)">
          <g id="Group_3985" data-name="Group 3985" transform="translate(0.39 0.42)">
            <path id="Path_17344" data-name="Path 17344" d="M644.936,588.388c.211.413.949.37,1.326.408.6.061,1.207.1,1.813.108,1.158.015,2.353-.4,3.491-.318a2.518,2.518,0,0,0,1.228-.35c.309-.194.2-.533-.176-.524a7.3,7.3,0,0,0-.921.1,13.548,13.548,0,0,1-1.782.229,18.833,18.833,0,0,1-3.436-.305,2.558,2.558,0,0,0-1.293.177c-.207.079-.337.1-.3.326A.517.517,0,0,0,644.936,588.388Z" transform="translate(-644.881 -587.709)" fill="#f2f2f2"/>
          </g>
          <g id="Group_3986" data-name="Group 3986">
            <path id="Path_17345" data-name="Path 17345" d="M644.237,587.414a26.172,26.172,0,0,0,3.788.321c1.185.006,2.573-.389,3.63-.321.514.033,1.18-.715.411-.764-1.132-.073-2.268.295-3.4.319a23.52,23.52,0,0,1-4.019-.319c-.519-.079-1.174.648-.411.764Z" transform="translate(-643.889 -586.64)" fill="#262626"/>
          </g>
          <circle id="Ellipse_106" data-name="Ellipse 106" cx="0.982" cy="0.982" r="0.982" transform="translate(3.281 2.647)" fill="#262626"/>
        </g>
      </g>
      <g id="Group_3993" data-name="Group 3993" transform="translate(531.279 464.292)">
        <rect id="Rectangle_951" data-name="Rectangle 951" width="84.472" height="47.92" rx="6" transform="matrix(0.896, -0.445, 0.445, 0.896, 0, 37.566)" fill="#262626"/>
        <g id="Group_3989" data-name="Group 3989" transform="translate(1.526 1.742)">
          <path id="Path_17346" data-name="Path 17346" d="M708.3,590.293l-44.072,21.883-20.41,10.134a6.044,6.044,0,0,1-2.838.91c-2.588.015-4.22-1.789-5.266-3.9l-5.321-10.716-7.159-14.418c-1.243-2.5-3.182-5.282-3.811-8.047-.949-4.169,2.292-5.921,5.307-7.417l9.392-4.663,51.408-25.525c.638-.317,1.271-.679,1.928-.957a5.328,5.328,0,0,1,6.958,2.623c1.463,2.68,2.726,5.492,4.084,8.226,4,8.06,8.146,16.064,12.011,24.191a5.7,5.7,0,0,1-2.319,7.73c-.467.26.664.118.864.007a5.94,5.94,0,0,0,2.689-7.849c-.444-.989-.968-1.949-1.45-2.92l-6.82-13.735-6.724-13.543c-.4-.814-.778-1.654-1.216-2.451a6.2,6.2,0,0,0-7.4-2.927,34.168,34.168,0,0,0-5.151,2.429l-11.421,5.671-30.5,15.142c-6.422,3.189-12.891,6.3-19.271,9.569-3.633,1.863-4.335,5.426-2.611,8.9l5.935,11.954,7.308,14.72c1.433,2.886,2.707,7.113,6.14,8.1,2.658.767,4.895-.494,7.168-1.622l9.617-4.775L707.8,590.98l1.148-.57C709.614,590.079,708.553,590.167,708.3,590.293Z" transform="translate(-618.289 -546.635)" fill="#262626"/>
        </g>
        <g id="Group_3992" data-name="Group 3992" transform="translate(14.835 21.974)">
          <g id="Group_3990" data-name="Group 3990" transform="translate(0 3.977)">
            <path id="Path_17347" data-name="Path 17347" d="M658.049,693.8l-.8.4,1.808,3.641a1.687,1.687,0,0,1,.209,1.216,1.2,1.2,0,0,1-.658.751,1.177,1.177,0,0,1-1.026.067,1.758,1.758,0,0,1-.82-.894l-4.33-8.72a1.346,1.346,0,0,1,.708-2.105l3.734-1.854a12.741,12.741,0,0,1,1.354-.591,3.723,3.723,0,0,1,1.122-.225,3.2,3.2,0,0,1,1.261.174,3.138,3.138,0,0,1,1.1.661,3.62,3.62,0,0,1,.794,1.066,3.16,3.16,0,0,1,.291,2.381,4.585,4.585,0,0,1-1.635,2.15,4.69,4.69,0,0,1,1.643.379,10.8,10.8,0,0,1,1.663.856,11.108,11.108,0,0,1,1.321.953,2.845,2.845,0,0,1,.637.671.907.907,0,0,1,.078.516,1.118,1.118,0,0,1-.218.541,1.376,1.376,0,0,1-.509.412,1.247,1.247,0,0,1-.74.141,1.956,1.956,0,0,1-.681-.236q-.328-.184-.921-.564l-1.68-1.074a9.422,9.422,0,0,0-1.522-.844,2.433,2.433,0,0,0-1.092-.209A3.029,3.029,0,0,0,658.049,693.8ZM657,688.386l-2.118,1.052,1.547,3.115,2.056-1.02a6.471,6.471,0,0,0,1.321-.834,1.824,1.824,0,0,0,.62-.916,1.559,1.559,0,0,0-.173-1.094,1.6,1.6,0,0,0-1.583-.919A5.317,5.317,0,0,0,657,688.386Z" transform="translate(-652.174 -655.153)" fill="#fff"/>
            <path id="Path_17348" data-name="Path 17348" d="M689.1,671.689l-5.171,2.568,1.382,2.783,4.762-2.365a1.268,1.268,0,0,1,.9-.154.9.9,0,0,1,.568.494.931.931,0,0,1,.058.757,1.235,1.235,0,0,1-.668.635l-4.762,2.365,1.6,3.223,5.349-2.656a1.306,1.306,0,0,1,.94-.153.961.961,0,0,1,.606.532.941.941,0,0,1,.05.789,1.306,1.306,0,0,1-.691.656l-6.238,3.1a1.342,1.342,0,0,1-2.105-.708l-4.229-8.519a2.135,2.135,0,0,1-.255-.88,1.018,1.018,0,0,1,.234-.685,2.158,2.158,0,0,1,.729-.54l6.06-3.009a1.314,1.314,0,0,1,.937-.161.919.919,0,0,1,.583.505.931.931,0,0,1,.054.778A1.316,1.316,0,0,1,689.1,671.689Z" transform="translate(-669.799 -645.586)" fill="#fff"/>
            <path id="Path_17349" data-name="Path 17349" d="M720.968,665.474a3.719,3.719,0,0,1,.388,2.111,3.933,3.933,0,0,1-.913,2.053,6.488,6.488,0,0,1-2.189,1.665,6.078,6.078,0,0,1-3.082.741,4.112,4.112,0,0,1-1.861-.594,3.08,3.08,0,0,1-1.218-1.24,1.12,1.12,0,0,1,.525-1.523.973.973,0,0,1,.73-.073,2.044,2.044,0,0,1,.771.475,5.106,5.106,0,0,0,.917.672,2.107,2.107,0,0,0,1,.248,2.92,2.92,0,0,0,1.315-.359,3.015,3.015,0,0,0,1.422-1.3,1.6,1.6,0,0,0,.049-1.5,1.4,1.4,0,0,0-.8-.745,2.473,2.473,0,0,0-1.156-.1q-.637.085-1.653.329a11.89,11.89,0,0,1-2.377.347,3.7,3.7,0,0,1-1.825-.395,3.025,3.025,0,0,1-1.3-1.4,3.15,3.15,0,0,1-.315-1.916,3.587,3.587,0,0,1,.922-1.85A6.752,6.752,0,0,1,712.4,659.6a6.277,6.277,0,0,1,1.934-.637,4.264,4.264,0,0,1,1.605.061,3.2,3.2,0,0,1,1.182.536,2.311,2.311,0,0,1,.688.8,1.21,1.21,0,0,1,.077.882,1.031,1.031,0,0,1-.559.687.927.927,0,0,1-.7.1,2.976,2.976,0,0,1-.765-.425,3.271,3.271,0,0,0-1.239-.633,2.423,2.423,0,0,0-1.57.332,2.688,2.688,0,0,0-1.24,1.1,1.268,1.268,0,0,0-.079,1.21,1.062,1.062,0,0,0,.477.495,1.741,1.741,0,0,0,.722.172,3.861,3.861,0,0,0,.8-.048q.383-.065,1.243-.251a19.336,19.336,0,0,1,1.981-.367,5.915,5.915,0,0,1,1.649,0,3.026,3.026,0,0,1,1.335.556A3.5,3.5,0,0,1,720.968,665.474Z" transform="translate(-686.903 -639.022)" fill="#fff"/>
            <path id="Path_17350" data-name="Path 17350" d="M737.716,652.634l-2.705-5.45a1.7,1.7,0,0,1-.205-1.2,1.177,1.177,0,0,1,.65-.757,1.208,1.208,0,0,1,1.019-.072,1.692,1.692,0,0,1,.831.888l2.768,5.573a5.667,5.667,0,0,0,1,1.483,2.048,2.048,0,0,0,1.245.615,3.091,3.091,0,0,0,1.689-.4,2.535,2.535,0,0,0,1.547-1.659,3.91,3.91,0,0,0-.52-2.445l-2.791-5.62a1.707,1.707,0,0,1-.211-1.2,1.179,1.179,0,0,1,.656-.755,1.22,1.22,0,0,1,1.01-.072,1.66,1.66,0,0,1,.841.887l2.706,5.45a8.991,8.991,0,0,1,.842,2.347,3.825,3.825,0,0,1-.2,2.047,4.24,4.24,0,0,1-1.024,1.549,7.035,7.035,0,0,1-1.786,1.215,8.807,8.807,0,0,1-2.389.835,4.018,4.018,0,0,1-1.972-.11,3.933,3.933,0,0,1-1.626-1.081A8.613,8.613,0,0,1,737.716,652.634Z" transform="translate(-702.324 -628.439)" fill="#fff"/>
            <path id="Path_17351" data-name="Path 17351" d="M767.77,636.471l4.1,8.249,4.653-2.31a1.366,1.366,0,0,1,.988-.154.981.981,0,0,1,.635.532.958.958,0,0,1,.042.823,1.406,1.406,0,0,1-.73.685l-5.542,2.752a1.342,1.342,0,0,1-2.105-.708l-4.333-8.728a1.694,1.694,0,0,1-.205-1.2,1.177,1.177,0,0,1,.65-.757,1.222,1.222,0,0,1,1.01-.072A1.666,1.666,0,0,1,767.77,636.471Z" transform="translate(-720.822 -624.808)" fill="#fff"/>
            <path id="Path_17352" data-name="Path 17352" d="M790.907,620.437l-2.5,1.244,4.087,8.232a1.692,1.692,0,0,1,.207,1.212,1.19,1.19,0,0,1-.648.751,1.206,1.206,0,0,1-1,.064,1.678,1.678,0,0,1-.843-.892l-4.088-8.232-2.5,1.244a1.413,1.413,0,0,1-1,.174,1.073,1.073,0,0,1-.674-1.385,1.437,1.437,0,0,1,.735-.683l7.3-3.623a1.432,1.432,0,0,1,1.015-.177.988.988,0,0,1,.632.544.967.967,0,0,1,.046.83A1.449,1.449,0,0,1,790.907,620.437Z" transform="translate(-730.921 -614.379)" fill="#fff"/>
            <path id="Path_17353" data-name="Path 17353" d="M822.971,614.829a3.719,3.719,0,0,1,.388,2.111,3.927,3.927,0,0,1-.913,2.052,6.481,6.481,0,0,1-2.189,1.665,6.073,6.073,0,0,1-3.082.74,4.119,4.119,0,0,1-1.86-.594,3.083,3.083,0,0,1-1.218-1.24,1.121,1.121,0,0,1,.525-1.523.975.975,0,0,1,.73-.074,2.043,2.043,0,0,1,.771.475,5.117,5.117,0,0,0,.917.672,2.114,2.114,0,0,0,1,.248,2.923,2.923,0,0,0,1.316-.359,3.021,3.021,0,0,0,1.422-1.3,1.6,1.6,0,0,0,.048-1.5,1.4,1.4,0,0,0-.8-.745,2.477,2.477,0,0,0-1.155-.1q-.637.085-1.653.33a11.922,11.922,0,0,1-2.377.346,3.688,3.688,0,0,1-1.825-.395,3.024,3.024,0,0,1-1.3-1.4,3.153,3.153,0,0,1-.315-1.916,3.588,3.588,0,0,1,.922-1.85,6.732,6.732,0,0,1,2.079-1.519,6.28,6.28,0,0,1,1.933-.637,4.259,4.259,0,0,1,1.606.06,3.22,3.22,0,0,1,1.181.536,2.32,2.32,0,0,1,.689.8,1.213,1.213,0,0,1,.076.882,1.032,1.032,0,0,1-.559.687.927.927,0,0,1-.7.1,2.957,2.957,0,0,1-.765-.425,3.275,3.275,0,0,0-1.239-.633,2.426,2.426,0,0,0-1.57.332,2.694,2.694,0,0,0-1.24,1.1,1.269,1.269,0,0,0-.078,1.21,1.062,1.062,0,0,0,.477.5,1.744,1.744,0,0,0,.721.172,3.807,3.807,0,0,0,.8-.048q.382-.064,1.243-.251a19.46,19.46,0,0,1,1.982-.367,5.9,5.9,0,0,1,1.648,0,3.016,3.016,0,0,1,1.336.555A3.5,3.5,0,0,1,822.971,614.829Z" transform="translate(-748.84 -608.269)" fill="#fff"/>
          </g>
          <g id="Group_3991" data-name="Group 3991" transform="translate(15.919)">
            <path id="Path_17354" data-name="Path 17354" d="M695.833,614.865l7.73,4.487-3.347-6.741a1.651,1.651,0,0,1-.207-1.125,1.061,1.061,0,0,1,.6-.707,1.1,1.1,0,0,1,.943-.059,1.636,1.636,0,0,1,.776.844l4.425,8.913q.741,1.492-.5,2.106a1.826,1.826,0,0,1-.6.188,1.578,1.578,0,0,1-.6-.052,3.057,3.057,0,0,1-.627-.253q-.314-.166-.634-.345l-7.584-4.464,3.3,6.64a1.579,1.579,0,0,1,.186,1.131,1.195,1.195,0,0,1-1.556.768,1.613,1.613,0,0,1-.779-.832l-4.341-8.743a2.771,2.771,0,0,1-.31-.935,1.393,1.393,0,0,1,.2-.81,1.483,1.483,0,0,1,.625-.585,1.346,1.346,0,0,1,1.1-.083,3.106,3.106,0,0,1,.559.272Q695.5,614.664,695.833,614.865Z" transform="translate(-692.701 -605.731)" fill="#fff"/>
            <path id="Path_17355" data-name="Path 17355" d="M729.241,598.939a6.756,6.756,0,0,1,3.382-.787,5.171,5.171,0,0,1,2.923,1.083,7.749,7.749,0,0,1,2.187,2.773,8.463,8.463,0,0,1,.83,2.566,5.761,5.761,0,0,1-.141,2.393,5.2,5.2,0,0,1-1.148,2.073,7.048,7.048,0,0,1-2.167,1.6,6.968,6.968,0,0,1-2.594.753,5.267,5.267,0,0,1-2.355-.339,5.766,5.766,0,0,1-2-1.35,8.47,8.47,0,0,1-1.537-2.195,8.185,8.185,0,0,1-.815-2.583,5.743,5.743,0,0,1,.165-2.394,5.245,5.245,0,0,1,1.15-2.03A6.956,6.956,0,0,1,729.241,598.939Zm6.157,4.209a5.935,5.935,0,0,0-1.473-1.957,3.35,3.35,0,0,0-1.833-.81,3.517,3.517,0,0,0-1.945.382,3.456,3.456,0,0,0-1.143.89,3.118,3.118,0,0,0-.63,1.253,4.012,4.012,0,0,0-.037,1.594,6.379,6.379,0,0,0,.614,1.848,6.522,6.522,0,0,0,1.111,1.626,4,4,0,0,0,1.331.953,3.223,3.223,0,0,0,1.4.263,3.6,3.6,0,0,0,2.791-1.618,3.4,3.4,0,0,0,.5-1.944A5.883,5.883,0,0,0,735.4,603.148Z" transform="translate(-712.771 -598.144)" fill="#fff"/>
          </g>
        </g>
      </g>
      <g id="Group_3997" data-name="Group 3997" transform="translate(554.567 469.148)">
        <g id="Group_3994" data-name="Group 3994" transform="translate(0 0)">
          <path id="Path_17356" data-name="Path 17356" d="M673.762,555.146a133.673,133.673,0,0,1,14.206,17.048,52.51,52.51,0,0,1,5.9,10.029c.611,1.528,3.913,10.681,1.079,10.974-.593.062-.914.805-.13.724,3.4-.353,2.318-4.282,1.814-6.553a36.142,36.142,0,0,0-4.92-11.554,127.309,127.309,0,0,0-16.9-21.14c-.313-.322-1.4.115-1.05.471Z" transform="translate(-673.694 -554.563)" fill="#262626"/>
        </g>
        <g id="Group_3995" data-name="Group 3995" transform="translate(22.701 37.012)">
          <path id="Path_17357" data-name="Path 17357" d="M734.32,650.2l-1.722-1.351c-.171-.134-.557,0-.734.061-.075.028-.5.2-.338.329l1.722,1.351c.171.134.557,0,.734-.061.075-.028.5-.2.338-.329Z" transform="translate(-731.49 -648.792)" fill="#262626"/>
        </g>
        <g id="Group_3996" data-name="Group 3996" transform="translate(22.534 37.853)">
          <path id="Path_17358" data-name="Path 17358" d="M732.5,652.712l-.295-1.61c-.066-.362-1.211-.09-1.138.3l.295,1.61c.066.362,1.211.09,1.138-.305Z" transform="translate(-731.065 -650.933)" fill="#262626"/>
        </g>
      </g>
    </g>
  </g>
</svg>
